<?xml version="1.0" standalone="no"?>
<!DOCTYPE svg PUBLIC "-//W3C//DTD SVG 20010904//EN"
 "http://www.w3.org/TR/2001/REC-SVG-20010904/DTD/svg10.dtd">
<svg version="1.0" xmlns="http://www.w3.org/2000/svg"
 width="738.000000pt" height="295.000000pt" viewBox="0 0 738.000000 295.000000"
 preserveAspectRatio="xMidYMid meet">

<g transform="translate(0.000000,295.000000) scale(0.100000,-0.100000)"
fill="#000000" stroke="none">
<path d="M6684 2934 c-53 -26 -67 -78 -35 -130 10 -17 22 -46 26 -65 4 -19 18
-54 30 -79 33 -66 62 -144 86 -234 11 -44 32 -108 45 -143 13 -34 22 -63 20
-63 -2 0 2 -20 10 -45 7 -25 10 -45 7 -45 -3 0 -1 -6 4 -12 6 -7 18 -38 27
-68 10 -30 20 -62 23 -70 8 -21 8 -20 17 -70 5 -25 13 -51 18 -57 6 -7 7 -13
3 -13 -4 0 -3 -6 3 -12 9 -12 33 -107 47 -185 3 -18 10 -44 15 -58 5 -14 12
-50 15 -81 2 -30 6 -58 9 -62 2 -4 7 -25 10 -47 4 -22 8 -47 11 -55 2 -8 7
-31 9 -50 9 -64 17 -104 31 -160 15 -60 23 -112 40 -260 l4 -34 -28 29 c-15
17 -61 59 -101 95 -41 36 -78 70 -84 76 -6 6 -24 19 -41 30 -16 10 -37 24 -45
31 -8 7 -46 37 -85 68 -38 30 -75 59 -80 63 -6 5 -24 17 -40 28 -17 10 -32 21
-35 24 -5 6 -87 64 -121 85 -68 43 -86 55 -99 67 -8 7 -28 20 -45 28 -16 8
-32 17 -35 20 -9 9 -85 51 -102 57 -10 3 -18 9 -18 14 0 5 -5 9 -11 9 -6 0
-24 9 -40 21 -16 11 -29 17 -29 14 0 -4 -12 3 -26 14 -15 12 -32 21 -39 21 -7
0 -18 7 -25 15 -7 8 -16 12 -21 9 -5 -3 -9 -1 -9 4 0 5 -15 15 -32 22 -18 8
-41 20 -52 29 -10 9 -21 15 -25 14 -3 0 -21 5 -40 13 -18 8 -35 14 -37 14 -2
0 -39 16 -81 36 -43 19 -87 39 -98 43 -11 5 -45 20 -75 34 -30 14 -77 33 -105
43 -27 9 -56 22 -62 27 -7 5 -13 6 -13 1 0 -5 -4 -4 -8 2 -7 11 -328 124 -424
149 -29 7 -87 22 -128 33 -41 11 -102 26 -135 33 -33 7 -64 14 -70 15 -5 1
-26 5 -45 8 -19 4 -69 13 -110 21 -41 7 -106 16 -145 19 -38 3 -81 8 -95 11
-64 14 -209 19 -500 18 -296 -1 -391 -5 -500 -19 -53 -7 -107 -13 -170 -18
-59 -5 -295 -44 -343 -57 -21 -6 -50 -12 -65 -14 -15 -2 -43 -9 -62 -15 -19
-6 -51 -14 -70 -17 -19 -3 -41 -10 -48 -15 -7 -6 -15 -9 -18 -6 -2 3 -42 -8
-87 -24 -45 -16 -91 -31 -102 -33 -27 -5 -101 -33 -136 -51 -16 -8 -30 -13
-32 -12 -1 2 -21 -4 -42 -13 -22 -9 -56 -22 -75 -29 -91 -32 -119 -44 -240
-105 -71 -36 -133 -64 -137 -63 -11 3 -207 -93 -211 -103 -2 -5 -74 -43 -159
-85 -86 -41 -170 -85 -187 -98 -17 -12 -49 -31 -71 -41 -22 -9 -48 -24 -57
-33 -10 -8 -35 -24 -56 -36 -90 -50 -212 -135 -281 -198 -20 -18 -56 -49 -81
-69 -66 -53 -89 -75 -261 -244 -214 -210 -248 -266 -199 -328 42 -53 116 -44
160 20 14 20 30 41 37 47 6 6 74 72 150 147 76 74 151 145 167 157 25 19 53
44 168 148 14 13 31 24 37 24 6 0 11 4 11 9 0 4 19 21 43 37 23 16 44 32 47
35 3 3 19 14 35 23 17 10 59 35 95 56 36 21 92 53 125 71 33 17 67 37 75 44
13 12 84 49 380 200 155 78 361 175 375 175 8 0 34 9 57 19 24 11 63 27 88 36
25 9 65 26 89 36 24 11 46 18 48 15 3 -3 20 2 37 11 17 10 35 16 39 15 4 -1
21 5 37 13 17 9 30 13 30 10 0 -3 9 -1 21 5 11 6 28 13 37 15 9 2 53 14 97 25
44 12 87 22 95 24 9 1 20 5 25 8 6 3 26 8 45 12 19 3 46 9 60 12 14 3 34 7 45
9 11 2 29 5 40 8 11 2 42 8 68 11 27 4 59 9 70 12 33 6 107 15 152 19 22 2 40
4 40 4 0 1 25 4 55 6 30 3 71 7 90 10 93 12 167 15 440 16 260 2 342 -1 440
-16 14 -2 50 -7 80 -10 115 -11 159 -18 275 -42 66 -13 131 -26 145 -28 35 -6
108 -21 120 -25 3 -1 9 -2 14 -1 5 1 16 -1 25 -5 9 -4 18 -8 21 -9 3 -1 18 -7
33 -13 16 -7 33 -12 40 -12 20 0 271 -82 285 -92 6 -6 12 -7 12 -3 0 4 10 1
23 -7 12 -8 40 -21 62 -28 22 -7 50 -19 63 -26 12 -8 22 -12 22 -8 0 4 7 1 15
-6 8 -7 15 -9 15 -5 0 5 8 1 18 -8 9 -8 31 -19 47 -23 17 -4 45 -15 63 -25 17
-10 32 -16 32 -13 0 3 7 -2 16 -10 8 -9 22 -16 30 -16 8 0 22 -4 32 -9 9 -6
44 -22 77 -36 94 -41 217 -106 227 -120 4 -5 8 -6 8 -1 0 5 8 2 18 -6 9 -8 49
-32 87 -54 39 -21 73 -43 77 -48 4 -6 8 -7 8 -3 0 5 12 -1 26 -12 15 -12 32
-21 38 -21 10 0 33 -17 86 -62 8 -7 15 -11 15 -8 0 7 207 -136 270 -187 6 -4
28 -21 50 -37 71 -53 229 -181 275 -225 178 -169 174 -162 104 -176 -36 -7
-44 -9 -69 -18 -26 -8 -72 -17 -115 -23 -19 -2 -44 -6 -55 -7 -11 -2 -42 -7
-70 -12 -66 -10 -69 -11 -150 -34 -38 -11 -88 -22 -110 -25 -22 -2 -81 -14
-130 -25 -96 -22 -122 -27 -194 -36 -25 -3 -66 -10 -91 -16 -25 -5 -61 -11
-80 -13 -37 -5 -125 -24 -150 -33 -17 -7 -14 -6 -122 -27 -144 -29 -182 -36
-228 -41 -60 -8 -89 -13 -127 -24 -18 -5 -33 -7 -33 -4 0 3 -6 1 -12 -5 -7 -5
-29 -12 -48 -15 -19 -3 -46 -8 -60 -11 -14 -3 -41 -9 -60 -12 -19 -4 -41 -11
-47 -17 -7 -5 -13 -7 -13 -4 0 3 -17 1 -37 -4 -21 -5 -49 -12 -63 -15 -40 -8
-88 -46 -93 -74 -3 -14 0 -38 7 -55 27 -63 62 -71 180 -39 50 14 105 27 121
30 17 3 73 16 125 29 52 13 122 27 155 31 33 4 62 9 65 9 3 1 25 5 50 9 61 10
71 12 100 19 14 4 37 9 53 12 60 11 84 16 122 27 50 15 42 13 98 22 60 9 83
14 122 23 33 7 36 8 110 18 27 3 76 12 110 20 59 14 75 17 145 29 93 16 98 17
185 41 33 9 71 18 85 20 14 2 36 6 50 9 14 2 45 7 70 10 129 17 174 26 183 35
6 6 19 11 29 11 9 0 38 7 64 16 61 20 79 24 137 27 41 3 52 9 88 46 l42 43 -7
102 c-6 97 -8 117 -21 176 -3 14 -7 50 -10 80 -2 30 -9 80 -15 110 -6 30 -13
69 -16 85 -2 17 -7 38 -10 47 -7 22 -13 55 -19 98 -6 43 -13 82 -26 140 -6 25
-12 61 -15 80 -2 19 -6 52 -10 72 -3 21 -6 40 -5 43 0 2 -6 22 -14 44 -7 22
-16 54 -19 73 -3 18 -10 48 -15 66 -5 17 -7 32 -4 32 3 0 1 6 -5 13 -6 7 -22
57 -35 112 -14 55 -31 114 -38 130 -17 42 -16 40 -43 140 -13 50 -34 122 -46
160 -22 66 -28 85 -31 103 -5 28 -81 226 -93 244 -9 12 -16 32 -16 44 0 11 -3
24 -7 28 -5 4 -8 11 -9 14 0 4 -11 30 -23 58 -31 70 -82 95 -137 68z"/>
</g>
</svg>
