<?xml version="1.0" standalone="no"?>
<!DOCTYPE svg PUBLIC "-//W3C//DTD SVG 20010904//EN"
 "http://www.w3.org/TR/2001/REC-SVG-20010904/DTD/svg10.dtd">
<svg version="1.0" xmlns="http://www.w3.org/2000/svg"
 width="876.000000pt" height="802.000000pt" viewBox="0 0 876.000000 802.000000"
 preserveAspectRatio="xMidYMid meet">

<g transform="translate(0.000000,802.000000) scale(0.100000,-0.100000)"
fill="#000000" stroke="none">
<path d="M3275 7910 c-22 -11 -54 -32 -71 -48 -32 -29 -74 -124 -74 -167 0
-25 -6 -28 -115 -53 -22 -5 -76 -20 -120 -32 -44 -12 -103 -28 -132 -35 -28
-7 -60 -18 -70 -23 -10 -5 -45 -15 -78 -23 -108 -23 -343 -152 -455 -251 -135
-119 -164 -148 -225 -221 -36 -42 -65 -80 -65 -83 0 -3 -13 -19 -30 -37 -16
-18 -30 -38 -30 -44 0 -7 -4 -13 -10 -13 -5 0 -10 -7 -10 -15 0 -8 -4 -15 -10
-15 -5 0 -10 -4 -10 -10 0 -5 -10 -21 -21 -34 -12 -14 -27 -33 -33 -44 -23
-39 -90 -139 -125 -187 -88 -119 -211 -294 -211 -300 0 -4 -14 -27 -32 -53
-38 -54 -80 -140 -114 -231 -14 -36 -31 -72 -38 -81 -18 -21 -55 -118 -80
-207 -12 -42 -25 -76 -30 -77 -5 0 -39 33 -74 74 -121 140 -152 169 -187 176
-74 13 -139 -27 -151 -94 -8 -39 34 -200 67 -258 22 -40 69 -191 69 -223 l0
-23 -37 23 c-21 13 -54 35 -73 50 -104 80 -247 54 -266 -48 -6 -33 11 -123 25
-133 4 -3 25 -32 47 -65 45 -67 107 -157 136 -195 11 -14 30 -42 44 -64 l25
-38 -38 6 c-21 3 -92 9 -159 12 -104 6 -124 4 -147 -10 -30 -20 -57 -73 -57
-113 0 -28 6 -42 52 -123 65 -114 78 -139 102 -205 31 -82 97 -225 207 -453
44 -90 77 -167 74 -171 -2 -5 -16 -12 -31 -15 -37 -10 -217 -114 -229 -133 -5
-9 -24 -33 -41 -52 -46 -54 -91 -140 -126 -238 -29 -82 -31 -100 -35 -259 l-5
-171 31 -70 c17 -39 31 -75 31 -79 0 -10 79 -112 138 -179 64 -72 218 -211
283 -254 31 -21 101 -53 155 -71 93 -32 109 -34 265 -38 l167 -4 15 -36 c15
-34 61 -117 112 -202 40 -66 89 -136 119 -171 17 -20 67 -80 111 -134 197
-241 407 -465 560 -596 120 -103 192 -153 302 -211 40 -21 101 -58 135 -83
127 -90 144 -101 171 -113 15 -7 36 -12 45 -12 10 0 33 -13 52 -28 19 -16 89
-54 155 -86 66 -31 128 -62 139 -67 32 -18 188 -65 276 -84 47 -9 135 -30 195
-45 61 -16 130 -31 155 -35 25 -3 79 -13 120 -22 127 -25 328 -52 475 -63 77
-6 190 -15 251 -20 193 -17 452 -13 588 10 204 35 244 44 581 133 28 8 64 21
82 30 18 9 39 17 47 17 19 0 332 156 365 181 13 11 31 19 40 19 9 0 39 16 66
36 28 20 86 54 129 76 44 22 91 48 105 57 14 10 46 31 71 46 25 16 97 81 160
144 64 64 166 163 227 221 60 58 120 123 132 145 12 22 35 60 51 85 46 71 338
654 351 702 6 24 17 55 24 69 13 25 36 138 55 269 17 111 16 110 58 110 200 1
513 212 616 417 50 101 58 133 63 279 8 214 -15 339 -90 488 -55 111 -112 163
-254 235 -58 29 -70 31 -167 31 -58 0 -115 -4 -128 -9 -13 -4 -36 -11 -52 -15
l-28 -7 3 125 4 126 54 47 c47 41 225 179 306 236 14 10 25 24 25 32 0 8 5 15
10 15 6 0 10 20 10 45 0 25 -3 45 -8 45 -4 0 -12 10 -17 22 -14 31 -51 48
-108 48 l-48 0 23 33 c39 56 131 169 166 202 61 60 82 96 82 143 0 37 -6 50
-34 78 -30 30 -40 34 -86 34 -28 0 -59 -4 -68 -9 -22 -11 -172 -22 -172 -12 0
4 9 17 20 29 11 12 20 26 20 32 0 5 5 10 10 10 6 0 10 7 10 15 0 8 5 15 10 15
6 0 10 7 10 15 0 8 4 15 9 15 13 0 108 215 136 309 22 75 24 93 19 219 -6 140
-25 237 -79 397 -46 139 -111 258 -163 300 -14 11 -33 27 -42 36 -53 50 -226
153 -330 196 -245 101 -333 134 -379 143 -29 5 -60 14 -70 19 -10 6 -45 15
-77 20 -32 5 -97 17 -144 26 -123 22 -377 45 -511 45 -115 0 -117 0 -134 26
-61 94 -141 163 -402 347 -124 88 -350 187 -578 252 -328 94 -556 115 -1261
115 -341 0 -444 3 -451 13 -6 6 -16 29 -23 50 -14 45 -52 93 -91 112 -42 22
-155 20 -204 -5z m345 -420 c12 -17 111 -79 175 -109 128 -61 204 -122 409
-324 228 -226 220 -200 71 -231 -158 -33 -352 -78 -470 -108 -66 -17 -145 -36
-175 -43 -170 -40 -194 -47 -410 -120 -140 -47 -373 -142 -465 -188 -135 -67
-373 -163 -382 -153 -4 4 0 21 10 39 9 18 19 46 23 62 4 17 22 59 42 95 19 36
59 111 88 167 47 91 148 254 219 353 111 155 181 243 282 353 65 71 124 139
132 151 12 20 31 26 115 40 56 10 130 21 166 26 67 8 161 3 170 -10z m960 10
c179 -11 358 -32 460 -54 160 -33 414 -121 525 -180 28 -14 53 -26 57 -26 10
0 53 -30 201 -140 l127 -95 -282 -7 c-440 -10 -840 -49 -990 -94 -13 -4 -21 3
-30 23 -7 15 -25 48 -42 73 -32 50 -308 324 -371 370 -22 16 -65 49 -96 72
-31 24 -65 48 -75 55 -25 16 281 17 516 3z m-1965 -336 c-69 -92 -125 -171
-125 -177 0 -5 -26 -46 -57 -91 -32 -44 -76 -117 -99 -161 -98 -185 -164 -318
-164 -329 0 -6 -14 -44 -30 -84 -29 -73 -70 -222 -70 -258 0 -22 -40 -50 -125
-91 -33 -15 -66 -34 -73 -40 -7 -7 -24 -16 -38 -19 -13 -3 -24 -10 -24 -14 0
-5 -10 -12 -22 -16 -13 -4 -60 -31 -104 -60 -45 -29 -92 -58 -106 -63 -13 -5
-37 -20 -54 -33 -32 -26 -107 -76 -142 -95 -23 -12 -23 -12 -16 19 3 18 20 59
36 91 16 32 49 105 73 163 24 57 66 139 93 182 53 82 193 285 217 315 8 9 36
50 62 90 27 39 53 77 58 83 6 6 21 27 35 47 14 20 28 37 33 37 4 0 7 7 7 15 0
8 5 15 10 15 6 0 10 7 10 15 0 8 5 15 10 15 6 0 10 5 10 11 0 6 6 16 13 24 23
25 47 55 47 61 0 3 6 11 13 19 22 23 47 55 47 60 0 9 44 58 126 139 44 45 100
105 124 134 42 52 92 85 182 117 45 17 134 42 155 44 7 1 -44 -74 -112 -165z
m4005 -429 c85 -8 193 -22 240 -30 47 -9 112 -21 144 -26 32 -5 67 -14 77 -20
10 -5 42 -14 71 -19 46 -9 218 -73 271 -101 9 -5 43 -19 75 -31 31 -11 73 -32
92 -45 19 -12 39 -23 45 -23 5 0 23 -11 38 -24 15 -13 50 -39 77 -58 80 -54
115 -127 181 -368 50 -181 38 -287 -53 -479 -35 -74 -41 -82 -51 -66 -49 88
-280 233 -502 315 -27 10 -95 35 -150 55 -55 21 -136 45 -180 55 -44 10 -116
28 -160 40 -130 35 -310 71 -455 90 -41 5 -120 16 -175 25 -55 8 -194 24 -310
36 -296 30 -1069 38 -1425 15 -403 -26 -760 -68 -1105 -131 -49 -9 -151 -27
-225 -40 -74 -12 -162 -30 -195 -38 -61 -15 -144 -32 -320 -68 -55 -11 -116
-24 -135 -29 -67 -17 -165 -41 -200 -49 -19 -4 -46 -13 -60 -19 -38 -16 -127
-42 -143 -42 -21 0 -182 -53 -237 -78 -25 -11 -76 -32 -115 -47 -38 -15 -83
-33 -100 -42 -39 -20 -75 -34 -75 -29 0 6 92 62 170 104 36 19 79 45 95 58 17
12 49 30 73 39 23 10 42 20 42 24 0 4 16 13 35 20 19 7 35 17 35 22 0 5 4 9
10 9 13 0 206 97 305 153 100 57 225 119 290 145 28 11 74 30 103 41 29 12 92
41 140 65 100 50 388 166 477 191 33 10 72 24 87 31 27 14 512 139 657 170
362 77 426 89 551 104 52 6 138 20 190 30 99 20 194 33 370 51 281 29 1178 38
1430 14z m-1085 -899 c331 -29 499 -46 600 -61 55 -9 134 -20 175 -25 145 -19
325 -55 455 -90 44 -12 116 -30 160 -40 44 -10 125 -34 180 -55 55 -20 124
-46 154 -56 30 -11 85 -36 122 -55 l69 -34 0 -118 c0 -64 6 -155 14 -202 8
-47 19 -141 25 -210 27 -297 33 -359 43 -435 6 -44 10 -188 9 -320 -1 -132 3
-321 9 -420 15 -264 22 -876 11 -980 -5 -49 -16 -124 -24 -165 -9 -41 -23
-120 -32 -175 -9 -55 -25 -127 -35 -160 -11 -33 -24 -85 -31 -115 -6 -30 -24
-75 -40 -100 -17 -24 -33 -56 -36 -70 -8 -32 -164 -341 -203 -400 -16 -25 -39
-62 -50 -82 -11 -21 -60 -75 -108 -120 -48 -46 -140 -136 -206 -201 -147 -146
-153 -149 -162 -100 -4 21 -16 58 -26 83 -11 25 -41 102 -68 171 -47 126 -79
200 -89 209 -6 5 -13 17 -53 89 -11 20 -31 50 -44 68 -13 17 -24 36 -24 41 0
6 -3 12 -7 14 -12 5 -63 75 -63 86 0 5 -9 17 -20 27 -11 10 -20 22 -20 28 0
16 -110 130 -149 155 -31 20 -47 23 -116 20 -77 -3 -82 -5 -117 -38 -42 -41
-79 -70 -89 -70 -11 0 -138 110 -204 177 -81 81 -138 113 -203 113 -42 0 -57
-5 -84 -28 -18 -15 -64 -51 -103 -79 -38 -28 -88 -70 -110 -92 -21 -23 -44
-41 -51 -41 -6 0 -34 33 -62 73 -28 41 -69 90 -91 110 -36 32 -47 37 -92 37
-57 0 -76 -8 -136 -56 -23 -19 -46 -34 -51 -34 -5 0 -17 -9 -27 -20 -10 -11
-23 -20 -28 -20 -6 0 -36 -24 -67 -52 -31 -29 -96 -86 -145 -127 l-88 -75 -34
40 c-19 21 -41 54 -50 71 -20 42 -70 73 -119 73 -46 0 -104 -35 -137 -84 -12
-18 -38 -57 -58 -87 -20 -30 -56 -79 -80 -109 -79 -99 -139 -183 -139 -194 0
-6 -38 27 -84 73 -83 83 -83 83 -145 88 l-62 6 -42 -45 c-23 -25 -56 -74 -72
-109 -17 -35 -33 -66 -36 -69 -3 -3 -24 -54 -45 -115 -21 -60 -43 -115 -49
-121 -5 -6 -35 -83 -65 -172 l-54 -161 -21 19 c-12 11 -24 20 -28 20 -4 0 -30
17 -59 38 -69 49 -114 77 -166 102 -89 41 -244 162 -372 290 -171 170 -529
593 -579 685 -12 22 -33 58 -46 80 -30 50 -143 265 -185 353 -21 44 -75 218
-89 287 -65 314 -82 413 -117 705 -9 74 -18 151 -21 171 -4 29 1 42 32 80 98
120 257 286 340 355 28 23 60 50 72 60 46 40 60 51 106 82 l47 33 0 -120 c0
-223 64 -424 203 -638 68 -106 272 -303 314 -303 7 0 13 -4 13 -10 0 -5 9 -10
20 -10 11 0 20 -4 20 -9 0 -5 17 -15 38 -21 20 -7 46 -18 57 -24 11 -7 40 -18
65 -26 25 -8 47 -17 50 -22 9 -11 307 -94 388 -106 89 -15 376 -15 495 -2 118
14 351 77 387 105 8 6 38 24 65 40 106 59 154 97 214 167 60 70 124 179 143
243 26 90 49 242 63 420 9 110 20 236 25 280 5 44 9 94 9 112 1 18 8 38 16 45
9 7 22 19 30 26 7 6 18 12 24 12 6 0 11 3 11 8 0 20 141 69 250 87 121 21 155
19 256 -14 124 -40 144 -50 150 -80 3 -14 10 -39 16 -56 10 -32 21 -109 38
-267 11 -114 37 -225 85 -360 48 -136 63 -162 144 -251 39 -42 82 -94 96 -115
79 -117 213 -268 280 -316 33 -23 103 -64 155 -92 l95 -49 322 2 c284 2 329 5
380 21 32 11 88 27 124 36 37 10 92 35 129 59 35 23 72 47 82 53 51 31 147
137 195 215 69 115 111 225 135 359 21 113 23 154 22 430 0 204 -5 322 -13
355 -7 28 -16 70 -20 95 -18 108 -120 202 -286 263 -132 49 -208 59 -520 73
-142 7 -579 -19 -600 -36 -5 -4 -30 -10 -55 -13 -143 -19 -196 -28 -236 -42
-25 -8 -51 -15 -58 -15 -25 0 -192 -58 -254 -88 l-64 -31 -86 43 c-48 24 -121
53 -163 66 -70 20 -92 22 -250 18 l-174 -4 -120 -43 c-179 -63 -185 -65 -185
-73 0 -5 -7 -8 -15 -8 -8 0 -15 -4 -15 -10 0 -5 -5 -10 -12 -10 -6 0 -19 -7
-28 -15 -15 -14 -18 -14 -30 0 -7 8 -19 15 -26 15 -8 0 -14 5 -14 10 0 6 -5
10 -10 10 -10 0 -21 7 -54 37 -25 22 -181 95 -255 120 -190 62 -247 68 -611
68 -282 0 -346 -3 -405 -17 -38 -10 -126 -25 -195 -34 -221 -28 -363 -54 -435
-78 -38 -13 -92 -29 -120 -36 -68 -18 -170 -56 -230 -87 -44 -22 -211 -137
-225 -153 -3 -3 -39 -31 -80 -62 -41 -31 -102 -80 -135 -108 -33 -29 -86 -75
-117 -102 -31 -28 -76 -75 -100 -106 l-43 -55 -6 39 c-4 21 -15 131 -24 244
-21 253 -18 461 9 502 15 23 17 40 11 111 l-7 83 38 25 c190 125 315 184 577
270 48 16 101 36 118 44 36 19 205 75 226 75 16 0 105 26 143 42 14 6 41 15
60 19 35 8 133 32 200 49 19 5 80 18 135 29 176 36 259 53 320 68 33 8 121 26
195 38 74 13 176 31 225 40 88 16 356 57 485 75 493 66 1160 85 1615 46z
m-1860 -1234 c55 -12 114 -27 130 -34 77 -29 211 -96 224 -111 7 -10 20 -17
27 -17 8 0 14 -4 14 -10 0 -5 7 -10 15 -10 8 0 15 -4 15 -10 0 -5 12 -13 26
-16 25 -6 25 -8 19 -73 -3 -36 -10 -100 -15 -141 -5 -41 -14 -145 -20 -230
-10 -139 -31 -271 -60 -380 -16 -60 -85 -143 -158 -191 -36 -24 -77 -52 -91
-61 -92 -62 -328 -108 -548 -108 -133 0 -371 47 -477 94 -17 8 -74 31 -126 51
-52 21 -97 41 -100 44 -3 3 -27 17 -55 31 -61 31 -190 156 -237 230 -109 173
-165 353 -155 500 3 41 7 84 10 95 16 68 29 105 36 110 5 3 19 25 31 49 17 35
28 46 53 51 18 4 64 17 102 31 72 24 213 50 435 78 69 9 154 23 190 31 99 22
108 23 370 21 211 -2 259 -5 345 -24z m3125 9 c149 -12 291 -56 346 -106 35
-33 49 -155 49 -435 0 -333 -26 -478 -113 -626 -49 -84 -206 -214 -277 -229
-16 -4 -57 -15 -90 -25 -71 -22 -432 -35 -538 -20 -76 11 -181 66 -242 127
-42 41 -129 151 -191 240 -17 25 -60 77 -96 116 -61 68 -67 78 -106 201 -43
130 -52 178 -72 366 -7 58 -16 127 -22 153 -12 58 -11 60 82 110 46 25 89 39
145 47 44 7 99 18 122 26 57 19 148 32 318 44 77 6 185 14 240 19 104 10 246
7 445 -8z m1278 -905 c26 -14 68 -44 93 -68 38 -35 51 -56 68 -113 45 -145 51
-314 15 -415 -39 -111 -218 -256 -350 -284 -29 -7 -31 -5 -27 17 3 13 0 200
-6 417 -8 286 -8 397 0 406 6 8 25 18 43 23 17 5 49 17 71 25 22 8 41 15 43
16 1 0 24 -11 50 -24z m-7131 -237 c70 -11 73 -13 77 -43 3 -17 15 -105 27
-196 11 -91 35 -232 51 -315 17 -82 33 -161 35 -175 7 -32 71 -262 80 -286 6
-15 1 -17 -43 -11 -93 11 -237 65 -290 109 -138 113 -265 251 -306 332 -30 59
-30 63 -25 171 6 147 29 212 114 335 20 29 28 35 97 73 37 20 60 27 81 23 17
-3 63 -11 102 -17z m4441 -1577 c22 -22 74 -67 114 -101 41 -34 82 -75 91 -91
25 -42 78 -63 151 -58 35 2 70 10 79 18 10 8 23 20 30 26 7 6 23 15 35 18 12
4 22 12 22 17 0 5 6 9 14 9 8 0 21 7 30 15 14 14 17 13 33 -12 10 -15 20 -30
23 -33 6 -5 43 -59 123 -180 21 -30 37 -61 37 -68 0 -6 3 -12 8 -12 4 0 18
-21 32 -47 13 -27 27 -50 30 -53 11 -11 43 -77 55 -115 8 -22 26 -71 41 -110
14 -38 37 -109 49 -158 l23 -87 -42 -24 c-103 -59 -156 -87 -216 -117 -36 -17
-76 -38 -90 -46 -99 -55 -327 -146 -420 -167 -41 -10 -104 -24 -139 -33 -251
-59 -468 -75 -715 -53 -61 5 -174 14 -251 20 -230 17 -512 64 -745 123 -52 14
-133 33 -180 42 -47 10 -125 31 -174 46 -49 16 -93 29 -98 29 -23 0 -198 95
-198 107 0 7 7 30 16 51 9 20 24 62 34 92 33 96 48 135 75 194 15 32 35 83 45
114 9 32 28 79 40 105 l22 47 69 -64 c74 -70 105 -82 185 -73 57 6 84 30 177
162 39 55 98 135 132 177 l60 78 18 -23 c10 -12 33 -45 51 -73 42 -64 84 -94
129 -94 59 0 101 25 147 87 48 65 74 90 175 171 39 31 92 75 119 99 76 68 78
68 113 20 129 -177 152 -197 230 -197 50 0 53 1 148 88 102 91 203 172 216
172 4 0 25 -17 47 -38z"/>
<path d="M6850 5454 c-50 -19 -177 -81 -188 -91 -7 -7 -24 -16 -38 -19 -13 -3
-24 -10 -24 -14 0 -4 -15 -14 -32 -21 -18 -7 -39 -19 -46 -26 -7 -7 -20 -13
-27 -13 -12 0 -128 99 -147 125 -9 13 -167 13 -176 0 -4 -6 -19 -16 -34 -24
-16 -8 -28 -18 -28 -23 0 -4 -7 -8 -15 -8 -8 0 -15 -4 -15 -10 0 -5 -4 -10
-10 -10 -5 0 -48 -29 -94 -65 l-85 -65 -53 62 c-104 121 -100 118 -167 118
-48 0 -70 -5 -100 -24 -41 -27 -142 -135 -163 -175 -7 -14 -23 -43 -35 -63
-27 -45 -31 -118 -7 -142 40 -41 119 -10 220 86 l41 39 78 -80 c43 -45 84 -81
92 -81 7 0 13 -4 13 -9 0 -23 111 -40 151 -23 9 4 44 32 76 62 33 30 70 62 82
70 22 14 33 23 80 63 12 9 26 17 31 17 6 0 10 5 10 10 0 6 33 -17 73 -51 83
-70 101 -79 164 -79 49 0 123 18 123 30 0 4 14 13 30 20 17 7 30 15 30 19 0 4
16 13 35 20 19 7 35 16 35 21 0 4 11 11 24 14 14 3 31 12 38 19 16 15 97 52
101 46 13 -15 65 -99 77 -122 8 -16 29 -42 47 -58 27 -23 43 -29 80 -29 40 0
50 5 85 40 39 39 40 42 36 93 -4 44 -14 69 -61 141 -31 47 -57 91 -57 96 0 6
-4 10 -10 10 -5 0 -10 6 -10 13 0 8 -19 31 -42 53 -39 36 -47 39 -108 41 -36
1 -72 0 -80 -3z"/>
<path d="M3477 5399 c-43 -15 -94 -39 -112 -53 -19 -15 -38 -26 -43 -26 -5 0
-22 -10 -37 -22 -15 -12 -44 -30 -64 -40 l-36 -19 -23 28 c-13 15 -34 45 -48
65 -38 59 -65 72 -135 64 -44 -4 -71 -13 -98 -33 -20 -16 -44 -32 -53 -38 -9
-5 -44 -29 -78 -53 -33 -23 -65 -40 -70 -37 -5 3 -34 41 -64 84 -56 79 -73 91
-133 91 -48 0 -82 -17 -143 -69 -30 -26 -84 -69 -120 -94 -99 -73 -236 -198
-254 -235 -9 -18 -16 -51 -16 -73 0 -105 130 -135 210 -49 23 25 160 137 221
183 l77 56 19 -22 c11 -12 32 -43 46 -68 38 -66 80 -99 127 -99 55 0 82 13
160 75 37 31 88 69 111 85 l43 29 16 -27 c9 -15 41 -53 71 -84 54 -57 56 -58
110 -58 49 0 61 5 110 41 30 22 70 49 89 60 19 11 64 37 99 59 103 65 100 66
201 -35 86 -86 90 -88 142 -92 60 -4 98 11 113 45 5 12 13 22 17 22 5 0 8 18
8 41 0 51 -31 99 -104 159 -30 25 -86 73 -125 108 -65 56 -76 62 -114 61 -23
-1 -77 -14 -120 -30z"/>
<path d="M4868 4183 c-56 -35 -62 -62 -55 -259 13 -354 34 -594 67 -754 31
-148 62 -284 70 -306 17 -44 12 -147 -10 -197 -35 -80 -130 -119 -285 -119
-112 0 -146 -12 -170 -58 -19 -37 -19 -53 0 -90 26 -50 75 -67 210 -75 140 -8
184 0 293 52 98 46 170 117 196 193 23 67 35 335 16 371 -7 11 -16 46 -20 78
-5 31 -16 88 -24 126 -17 76 -46 259 -67 420 -8 61 -12 182 -11 310 2 183 0
214 -15 245 -36 71 -132 102 -195 63z"/>
<path d="M3103 4256 c-43 -20 -66 -60 -107 -186 -44 -133 -55 -234 -32 -279
25 -47 71 -72 131 -70 28 1 96 -2 152 -6 101 -8 101 -8 142 21 24 17 50 48 62
74 21 44 21 47 5 107 -9 34 -16 82 -16 108 0 83 -47 144 -110 145 -30 0 -37 5
-47 29 -21 58 -114 87 -180 57z"/>
<path d="M6168 4343 c-28 -18 -78 -99 -78 -127 0 -8 -18 -25 -40 -36 -107 -54
-106 -204 0 -248 35 -15 40 -21 40 -51 0 -25 9 -43 39 -72 36 -37 42 -39 98
-39 64 0 89 14 128 73 14 22 25 27 55 27 72 0 123 33 149 99 18 42 3 89 -43
136 -17 18 -53 61 -81 95 -27 34 -60 74 -72 89 -13 14 -23 28 -23 31 0 3 -13
13 -29 23 -37 22 -108 22 -143 0z"/>
<path d="M5674 1311 c-23 -10 -57 -22 -75 -26 -50 -11 -145 -42 -171 -56 -13
-7 -39 -16 -58 -20 -19 -4 -89 -19 -155 -34 -66 -14 -158 -32 -205 -40 -110
-19 -330 -19 -423 -1 -40 8 -110 19 -157 25 -109 14 -172 34 -230 71 -67 43
-120 42 -166 -4 -29 -29 -34 -41 -34 -82 0 -45 4 -51 49 -94 68 -64 171 -103
326 -124 66 -9 170 -25 230 -36 206 -36 394 -27 680 35 66 15 136 30 155 34
19 4 45 13 58 20 28 15 119 44 192 61 75 18 163 65 183 100 35 58 14 140 -43
174 -37 21 -105 20 -156 -3z"/>
</g>
</svg>
