<?xml version="1.0" standalone="no"?>
<!DOCTYPE svg PUBLIC "-//W3C//DTD SVG 20010904//EN"
 "http://www.w3.org/TR/2001/REC-SVG-20010904/DTD/svg10.dtd">
<svg version="1.0" xmlns="http://www.w3.org/2000/svg"
 width="2215.000000pt" height="2603.000000pt" viewBox="0 0 2215.000000 2603.000000"
 preserveAspectRatio="xMidYMid meet">

<g transform="translate(0.000000,2603.000000) scale(0.100000,-0.100000)"
fill="#000000" stroke="none">
<path d="M5250 26020 c-358 -4 -605 -11 -675 -20 -115 -13 -459 -10 -1035 10
-169 6 -308 6 -360 0 -255 -27 -338 -33 -470 -32 -80 0 -579 3 -1109 6 -564 2
-997 9 -1045 15 -45 5 -167 13 -273 17 l-192 7 -29 -30 -30 -29 -6 -305 c-13
-629 -12 -2184 2 -2389 7 -107 17 -433 22 -725 5 -291 14 -631 19 -755 13
-310 13 -690 -1 -840 -7 -82 -12 -481 -14 -1150 -2 -968 -8 -1239 -34 -1545
-14 -158 -9 -676 14 -1370 25 -792 38 -2009 23 -2255 -12 -212 -14 -607 -6
-1430 3 -407 2 -494 -13 -610 -37 -291 -41 -479 -29 -1480 6 -525 13 -1274 17
-1665 4 -535 9 -740 21 -830 21 -175 27 -597 12 -890 -17 -334 -17 -679 0
-1026 12 -245 12 -310 0 -455 -9 -113 -14 -325 -14 -644 0 -261 -4 -481 -8
-487 -4 -7 -10 -590 -12 -1295 -2 -780 -8 -1330 -15 -1403 -7 -81 -7 -262 -1
-555 4 -239 6 -667 3 -950 -3 -374 -1 -555 8 -660 21 -235 31 -247 197 -230
59 6 137 16 173 22 96 17 1751 16 2120 -1 157 -7 476 -17 710 -22 234 -4 556
-11 715 -15 337 -8 947 10 979 29 14 8 84 12 216 12 308 0 1094 -24 1194 -36
104 -13 432 -5 511 12 34 7 467 12 1370 14 891 2 1372 6 1480 14 88 7 225 12
305 11 80 0 228 4 330 10 106 6 317 9 495 5 1132 -21 1635 -28 2360 -32 1734
-8 1901 -8 1923 -1 13 4 173 10 355 13 183 3 375 10 427 17 119 14 832 3 900
-14 32 -8 334 -12 1070 -12 749 -1 1075 -5 1210 -15 174 -13 464 -14 1992 -12
213 0 344 5 430 16 153 19 459 36 515 28 38 -5 45 -2 74 26 l32 32 -9 242
c-12 325 -10 641 5 872 18 264 20 847 3 950 -9 59 -12 236 -12 665 1 546 10
910 42 1565 17 334 16 843 -2 1000 -10 95 -11 274 -6 855 4 462 3 778 -3 850
-34 403 -35 442 -13 695 21 230 21 267 12 925 -5 377 -14 946 -20 1265 -5 319
-9 758 -8 975 2 217 -1 463 -6 545 -6 105 -5 171 3 216 28 164 33 487 33 2034
-1 1004 -5 1611 -11 1685 -14 154 -14 226 2 253 26 45 -6 1211 -43 1562 -7 70
-8 196 -1 415 38 1184 40 1258 35 2050 -9 1679 -8 2217 7 2355 19 174 19 930
0 1467 -14 387 -14 410 4 486 16 71 17 110 12 329 -3 136 -10 273 -16 303 -25
135 -39 496 -34 882 l6 387 -32 31 c-34 35 -29 34 -156 9 -43 -8 -330 -12
-1030 -13 -822 -1 -983 1 -1055 14 -69 12 -193 15 -655 15 -367 0 -677 -5
-870 -15 -199 -10 -509 -15 -925 -15 -344 0 -826 -6 -1071 -14 -407 -13 -456
-13 -555 2 -63 9 -207 18 -339 21 -133 3 -249 11 -275 18 -65 18 -425 12 -510
-9 -54 -13 -149 -15 -580 -16 -283 0 -659 6 -835 13 -221 8 -522 10 -970 5
-357 -3 -706 -5 -775 -4 -534 10 -2430 -6 -2528 -21 -56 -9 -106 -9 -215 1
-89 7 -311 12 -597 11 -250 0 -549 3 -665 9 -822 37 -1108 41 -2195 29z m1505
-185 c237 -8 527 -19 645 -25 118 -5 409 -9 645 -8 273 1 500 -4 623 -12 158
-11 211 -11 297 -1 138 17 1527 29 2485 21 96 -1 443 2 770 5 411 5 697 3 925
-6 182 -6 582 -12 890 -12 482 0 569 3 625 17 81 20 202 20 435 1 99 -8 252
-15 340 -15 106 0 187 -5 240 -16 69 -14 135 -15 465 -10 212 4 464 11 560 17
110 7 370 8 698 4 387 -6 570 -4 700 5 139 10 204 11 301 1 114 -10 126 -10
150 6 24 17 66 18 576 18 444 0 566 -3 635 -15 72 -13 242 -15 1114 -14 l1029
0 -7 -326 c-7 -335 8 -681 36 -845 17 -100 16 -475 -1 -545 -11 -44 -13 -119
-8 -380 4 -179 12 -413 18 -520 13 -236 6 -906 -11 -1045 -13 -108 -15 -1003
-7 -2405 3 -525 0 -904 -9 -1210 -36 -1172 -36 -1173 -25 -1285 39 -382 51
-861 35 -1435 -3 -134 -1 -286 6 -375 7 -103 11 -635 12 -1660 0 -1484 -5
-1813 -34 -1974 -8 -47 -8 -130 -2 -291 5 -124 8 -391 6 -593 -2 -202 2 -634
8 -960 6 -326 15 -878 20 -1227 7 -592 6 -650 -12 -850 -21 -231 -20 -399 4
-665 9 -104 12 -347 9 -936 -2 -591 0 -823 9 -905 17 -147 18 -568 2 -899 -36
-761 -42 -999 -42 -1612 0 -464 3 -663 13 -720 14 -92 13 -524 -2 -803 -19
-333 -23 -641 -12 -860 6 -118 9 -216 7 -217 -2 -2 -84 -8 -182 -13 -99 -6
-235 -17 -304 -26 -90 -11 -209 -15 -430 -14 -168 0 -620 0 -1005 -1 -547 -1
-761 3 -979 16 -232 13 -433 16 -1205 13 -715 -2 -937 0 -976 9 -75 19 -862
30 -1008 14 -62 -7 -245 -14 -407 -16 -162 -2 -439 -9 -615 -14 -222 -7 -488
-7 -870 1 -302 6 -714 8 -915 4 -201 -4 -534 -2 -740 3 -1311 35 -1973 35
-2635 -1 -131 -7 -702 -12 -1510 -13 -906 -2 -1316 -6 -1354 -14 -90 -18 -298
-25 -406 -12 -91 10 -399 20 -1155 38 -223 5 -277 3 -344 -11 -108 -22 -608
-40 -916 -32 -135 3 -447 11 -695 16 -247 5 -553 14 -680 20 -565 24 -2030 21
-2311 -6 l-62 -6 -12 104 c-10 77 -12 241 -8 653 3 303 2 726 -1 940 -3 215
-3 428 1 475 4 47 10 659 13 1360 3 817 9 1308 16 1367 6 57 9 248 7 490 -2
276 1 462 11 606 13 181 13 247 0 520 -17 373 -17 616 0 952 16 312 9 830 -14
995 -12 87 -16 201 -15 475 0 198 -2 477 -5 620 -3 143 -10 719 -15 1280 -9
879 -9 1050 4 1240 9 121 21 256 28 300 10 60 12 211 9 610 -7 946 -6 1146 7
1390 15 281 2 1519 -24 2355 -23 713 -27 1113 -14 1265 26 307 32 577 35 1545
1 640 6 1072 13 1150 14 151 14 632 1 940 -5 124 -14 464 -19 755 -5 292 -15
618 -22 725 -13 203 -15 1799 -2 2286 l6 230 87 -3 c47 -2 138 -8 201 -15 74
-7 456 -12 1065 -15 523 -2 1036 -5 1140 -6 105 -1 249 5 320 12 72 7 162 16
200 20 39 4 167 4 285 0 550 -18 1005 -22 1115 -9 70 9 318 16 685 20 947 10
998 10 1445 -5z"/>
</g>
</svg>
