<?xml version="1.0" standalone="no"?>
<!DOCTYPE svg PUBLIC "-//W3C//DTD SVG 20010904//EN"
 "http://www.w3.org/TR/2001/REC-SVG-20010904/DTD/svg10.dtd">
<svg version="1.0" xmlns="http://www.w3.org/2000/svg"
 width="2122.000000pt" height="2501.000000pt" viewBox="0 0 2122.000000 2501.000000"
 preserveAspectRatio="xMidYMid meet">

<g transform="translate(0.000000,2501.000000) scale(0.100000,-0.100000)"
fill="#000000" stroke="none">
<path d="M17723 24988 c-55 -39 -56 -97 -2 -143 l31 -25 1442 0 c794 0 1524
-3 1624 -7 l181 -6 12 -46 c8 -33 13 -269 16 -816 l4 -770 -31 -480 c-38 -591
-49 -842 -50 -1143 l0 -234 29 -29 c37 -37 79 -38 120 -3 43 36 49 69 44 234
-6 182 8 511 47 1125 l31 480 -4 820 c-4 769 -6 826 -24 913 -30 139 -23 136
-251 144 -103 3 -862 7 -1687 7 l-1500 1 -32 -22z"/>
<path d="M91 3787 c-13 -6 -34 -25 -45 -40 -21 -28 -21 -33 -28 -1090 -3 -584
-9 -1384 -13 -1777 l-8 -715 28 -33 c58 -69 169 -105 374 -121 171 -14 317
-14 1216 -1 753 11 1037 20 1355 45 102 9 248 17 324 18 l139 3 39 43 c36 42
53 101 28 101 -5 0 -10 7 -10 15 0 29 -58 47 -134 42 -39 -3 -138 -10 -221
-16 -82 -6 -244 -17 -360 -26 -291 -21 -388 -23 -1325 -36 -865 -12 -1055 -8
-1199 28 l-64 16 8 651 c4 358 11 1124 15 1701 5 578 11 1071 15 1097 6 44 5
50 -23 78 -33 33 -70 38 -111 17z"/>
</g>
</svg>
