<svg id="Layer_1" data-name="Layer 1" xmlns="http://www.w3.org/2000/svg" viewBox="0 0 650 190"><defs><style>.cls-1{fill:#ffff61;}</style></defs><path class="cls-1" d="M244.26,63.59C303.88,25.85,343.72,6,369.68,6c21.55,0,35.75,19,36.06,35.56.34,18-13.77,35.54-34.21,35.55C337.65,77.12,327.63,35.48,244.26,63.59Z"/><path class="cls-1" d="M32.76,187C49.19,171.91,49,150.56,49,129.2c0-12.81-.5-27.11-4.44-39.26-4-12.32-8.86-11.71-11.66-15.78H76.59C57.16,88.45,60.53,171.1,78.76,187ZM81.57,74.16c21-1.1,34.19-1.52,40.93,2.27A10.31,10.31,0,0,1,127,90c-2,4.56-8.29,8.35-13.11,5.13C104.77,89,105.69,78.79,81.57,74.16ZM69.49,134.31c15.3-9.69,25.52-14.78,32.18-14.78a9.48,9.48,0,0,1,9.25,9.12,8.89,8.89,0,0,1-8.77,9.12C93.46,137.78,90.88,127.1,69.49,134.31Z"/><path class="cls-1" d="M135.12,186.87c15.93-16.1,18.73-40.59,18.73-62.27,0-10.68.37-38.94-12.65-43.44a52.72,52.72,0,0,0-6.08-1.73c1.64-.66,33.52-8.21,37.13-8.21,0,31.37-10,88.54,10.19,113.84a12.3,12.3,0,0,1,1.31,1.81Z"/><path class="cls-1" d="M189.42,144.32c.93-21.09,17.39-34.09,36.15-37.51-17.1,19.18-11.32,65.77,7.16,80.77C210.41,185.4,188.29,170,189.42,144.32Zm42.78-38.18c23.34,1.72,45.58,15.84,44.43,42-.93,21.09-17.72,34.87-36.89,38.8C254.44,171.26,252.36,117.9,232.2,106.14Z"/><path class="cls-1" d="M333.68,163.87c0,13.23-13.8,23-13.8,23-1.81-21.85-20.21-56-35.32-71.79-1.32-1.49-7.4-6.09-7.89-7.07h46.17v.33C306.9,134.29,333.68,147.77,333.68,163.87Zm6.55-48.79c0-6.09,6.74-10.2,12.81-10.2,4.94,0,9.37,2.63,9.37,9,0,7.73-8.38,23.53-22.83,35.36C349.76,133.67,340.23,125.26,340.23,115.08Z"/><path class="cls-1" d="M426.23,177.17c6.41,0,12.16-1,17.42-4.76C436.74,183.91,423.93,189,411,189c-23.82,0-44-16.09-44-40.91,0-23.49,19.86-37.45,41.55-40.41C382.52,130.85,386.64,177.17,426.23,177.17Zm-.33-58.11c-.32-5.46-4.69-8.73-10.41-11.17,10,1,28.16,6.08,28.16,18.07,0,13.8-19.66,18.65-31.22,17.9a73,73,0,0,1-11.05-1.81C411.73,139.42,426.58,130.38,425.9,119.06Z"/><path class="cls-1" d="M454.78,186.87a4.44,4.44,0,0,1,1.15-1.32c10.52-9.85,14.62-27.93,14.62-41.89,0-12-3.12-23.66-16.09-27.44,12-2.79,24.8-8.37,37.12-8.37-3.61,23-5.75,60,10.85,77.7a8.88,8.88,0,0,1,1,1.32ZM522.32,106c6.74,0,12.49,3.61,12.49,10.84,0,6.08-4.43,10-10.35,10-3.61,0-10-5.75-16.92-5.75-3.94,0-9.06.55-12.52,2.52C501.27,115.46,511.15,106,522.32,106Z"/><path class="cls-1" d="M574.84,188c-9.86-1.15-37.64-4.44-37.64-17.58,0-4.93,4.26-9.7,10.51-9.7C560.85,160.74,561.69,181.94,574.84,188Zm20.88-15.11c0-22.19-54.38-21.86-54.38-46.34,0-13.47,19.93-18.23,30.61-20-4.93,1.15-13.2,7.72-13.2,12.65,0,17.25,58.49,24.15,58.49,49.13,0,13.8-24.4,18.56-35.08,19.38C588.57,185.22,595.72,180.13,595.72,172.91ZM613,123c0,5.26-5.17,8.38-10.84,8.38-10.52,0-10.58-20.69-23.15-24.81C587.52,106.85,613,111.79,613,123Z"/></svg>