<?xml version="1.0" standalone="no"?>
<!DOCTYPE svg PUBLIC "-//W3C//DTD SVG 20010904//EN"
 "http://www.w3.org/TR/2001/REC-SVG-20010904/DTD/svg10.dtd">
<svg version="1.0" xmlns="http://www.w3.org/2000/svg"
 width="800.000000pt" height="800.000000pt" viewBox="0 0 800.000000 800.000000"
 preserveAspectRatio="xMidYMid meet">

<g transform="translate(0.000000,800.000000) scale(0.100000,-0.100000)"
fill="#000000" stroke="none">
<path d="M3629 7866 c-2 -3 -67 -12 -144 -20 -133 -15 -444 -85 -526 -118 -19
-8 -61 -20 -94 -27 -33 -7 -87 -22 -120 -33 -33 -11 -85 -26 -115 -33 -148
-34 -409 -151 -492 -219 -66 -55 -92 -72 -178 -118 -129 -69 -208 -120 -399
-257 -133 -97 -304 -263 -464 -452 -39 -47 -121 -139 -180 -204 -60 -65 -121
-136 -135 -158 -97 -145 -141 -223 -270 -477 -162 -318 -168 -332 -224 -515
-50 -163 -65 -222 -77 -310 -6 -38 -17 -92 -25 -120 -51 -177 -68 -289 -76
-525 -15 -381 -12 -495 15 -725 47 -388 59 -450 131 -659 36 -105 76 -227 89
-271 12 -44 35 -111 49 -150 31 -81 151 -315 196 -381 17 -25 39 -62 50 -82
23 -41 71 -115 143 -218 87 -125 120 -168 186 -245 36 -42 84 -100 106 -130
43 -60 312 -329 361 -363 18 -11 59 -43 92 -71 33 -27 80 -65 104 -82 24 -18
71 -54 105 -80 34 -27 98 -70 143 -98 45 -27 118 -74 163 -104 45 -30 104 -70
132 -88 27 -18 54 -33 58 -33 5 0 25 -14 44 -30 18 -17 41 -30 49 -30 9 0 41
-18 72 -40 43 -31 64 -40 92 -39 35 2 160 -31 275 -71 56 -20 95 -32 220 -67
28 -7 142 -31 255 -53 113 -22 237 -47 275 -55 39 -8 126 -22 195 -31 161 -21
470 -13 640 16 63 10 147 24 185 30 294 46 517 99 700 165 55 20 138 49 185
65 47 16 119 42 160 60 86 36 156 61 219 81 24 7 69 29 100 47 31 19 103 62
161 95 58 34 138 88 178 122 41 33 84 67 95 75 96 66 208 170 489 456 195 198
341 355 363 390 20 33 47 70 60 84 13 14 38 52 55 85 18 33 40 71 50 85 42 60
200 371 200 393 0 7 8 28 19 47 52 98 156 473 212 770 11 58 26 134 35 170 45
200 65 556 45 825 -22 295 -86 691 -133 825 -16 47 -56 164 -88 260 -31 96
-74 216 -95 265 -21 50 -48 117 -60 150 -58 155 -76 195 -115 265 -42 73 -57
95 -110 163 -14 18 -52 77 -85 132 -65 111 -59 103 -276 346 -180 201 -353
370 -432 422 -31 21 -77 62 -103 92 -26 31 -58 58 -73 61 -14 4 -53 23 -86 43
-33 19 -161 86 -285 149 -124 62 -266 134 -315 160 -50 26 -135 65 -190 86
-55 22 -109 45 -120 53 -11 7 -26 13 -33 13 -8 0 -47 13 -88 30 -40 16 -129
40 -196 54 -213 43 -351 74 -416 95 -78 25 -176 39 -352 51 -139 9 -573 13
-581 6z m640 -191 c4 -2 46 -9 94 -15 47 -6 114 -20 149 -31 64 -20 200 -52
410 -94 181 -37 454 -144 723 -285 99 -52 214 -111 255 -130 136 -63 317 -170
361 -214 24 -24 69 -61 100 -82 78 -54 265 -238 444 -437 147 -163 158 -179
256 -367 10 -19 38 -54 62 -78 42 -41 110 -156 140 -237 9 -22 26 -69 40 -105
13 -36 41 -105 62 -155 21 -49 64 -169 95 -265 32 -96 72 -214 89 -262 45
-128 110 -528 132 -818 17 -224 -4 -559 -45 -730 -8 -30 -21 -98 -31 -150 -53
-292 -142 -612 -224 -810 -66 -159 -174 -362 -223 -418 -15 -18 -28 -39 -28
-46 0 -15 -92 -154 -149 -226 -47 -59 -579 -591 -656 -656 -33 -28 -72 -58
-86 -67 -15 -9 -58 -43 -97 -76 -38 -34 -74 -61 -78 -61 -5 0 -29 -14 -53 -30
-24 -17 -55 -30 -68 -30 -29 0 -66 -18 -147 -73 -33 -23 -79 -50 -101 -59 -22
-9 -67 -27 -100 -41 -83 -35 -190 -76 -255 -97 -30 -10 -107 -36 -170 -59
-123 -43 -235 -75 -340 -97 -36 -7 -87 -18 -115 -24 -27 -6 -77 -12 -110 -13
-33 -2 -87 -11 -120 -20 -101 -29 -292 -56 -450 -63 -154 -6 -308 7 -470 41
-38 8 -162 33 -275 55 -113 22 -221 44 -240 50 -91 24 -180 50 -235 70 -33 11
-105 34 -160 50 -182 53 -322 123 -526 266 -43 30 -87 57 -96 61 -29 11 -234
153 -293 203 -30 25 -67 54 -82 63 -30 19 -181 149 -273 236 -71 66 -179 191
-199 229 -8 15 -36 47 -61 72 -26 25 -63 68 -82 95 -19 28 -52 75 -74 105
-125 175 -195 287 -304 489 -72 133 -104 211 -140 336 -25 89 -75 239 -110
330 -47 123 -63 210 -111 608 -27 227 -27 230 -16 545 10 284 13 328 36 422
42 170 64 270 76 345 10 66 26 125 84 310 41 131 49 150 170 390 154 304 226
433 271 485 12 14 30 38 40 54 10 17 63 79 119 140 56 60 144 159 197 220 123
142 281 295 352 340 31 20 58 40 62 45 14 24 190 136 342 220 53 29 109 62
123 72 64 49 120 87 177 121 68 40 255 113 343 133 30 7 82 22 115 33 33 11
87 26 120 33 33 7 75 19 94 27 82 33 393 103 526 118 77 8 142 18 145 20 6 6
579 -4 589 -11z"/>
<path d="M3529 7566 c-8 -9 -133 -28 -234 -36 -171 -15 -413 -93 -790 -257
-197 -85 -482 -245 -574 -322 -26 -21 -57 -44 -71 -52 -14 -8 -77 -53 -140
-101 -131 -98 -464 -439 -547 -557 -49 -72 -167 -237 -233 -326 -67 -90 -139
-218 -186 -330 -52 -123 -110 -280 -125 -339 -5 -21 -16 -50 -23 -65 -48 -95
-104 -317 -151 -596 -33 -199 -44 -573 -25 -860 16 -224 80 -566 139 -735 16
-47 54 -155 84 -241 62 -178 142 -349 216 -462 28 -43 51 -80 51 -83 0 -10 84
-149 121 -199 20 -27 56 -84 80 -125 24 -41 74 -106 110 -145 36 -38 84 -97
106 -130 87 -127 221 -261 353 -351 36 -24 108 -78 160 -119 52 -41 124 -91
160 -112 36 -20 117 -71 180 -112 116 -76 253 -150 279 -151 7 0 77 -29 155
-64 173 -78 537 -201 626 -210 36 -4 121 -18 190 -31 69 -12 194 -31 278 -41
134 -16 173 -16 310 -6 217 16 431 39 532 57 47 8 146 26 220 40 124 22 346
86 401 116 12 6 45 17 73 24 151 38 556 226 711 330 277 185 565 438 751 660
33 39 62 72 67 73 15 7 230 297 257 348 15 27 50 84 77 125 63 93 122 204 158
294 16 39 34 77 41 85 11 14 83 223 117 340 9 30 19 84 22 120 4 36 13 92 21
125 8 33 19 96 24 140 5 44 21 166 35 270 29 221 41 517 27 655 -21 198 -54
418 -73 495 -12 44 -32 127 -45 185 -14 58 -39 143 -56 189 -17 46 -38 111
-48 145 -32 110 -118 319 -168 406 -27 47 -74 130 -105 186 -31 55 -80 130
-109 167 -29 36 -84 110 -123 164 -38 53 -104 134 -145 178 -41 45 -114 124
-161 176 -97 106 -253 231 -318 254 -123 43 -289 -13 -341 -116 -28 -54 -34
-115 -20 -195 20 -118 51 -162 284 -397 216 -219 224 -228 321 -382 31 -49 70
-110 87 -133 44 -63 135 -244 169 -335 16 -43 47 -140 68 -215 22 -75 51 -177
66 -227 14 -49 32 -148 40 -220 8 -71 19 -148 25 -170 31 -132 54 -511 39
-680 -19 -228 -61 -493 -109 -686 -30 -122 -102 -344 -126 -392 -23 -43 -214
-331 -295 -442 -94 -131 -114 -153 -288 -314 -167 -156 -280 -250 -331 -276
-19 -10 -71 -41 -115 -70 -44 -28 -93 -60 -110 -70 -16 -11 -95 -52 -175 -91
-204 -101 -539 -211 -885 -289 -109 -25 -386 -50 -535 -48 -158 1 -218 9 -415
54 -168 37 -295 63 -420 84 -55 10 -129 28 -164 41 -35 13 -91 31 -125 40 -59
15 -115 42 -351 171 -250 135 -365 228 -546 438 -61 72 -151 171 -199 220 -48
50 -95 105 -104 122 -9 18 -36 56 -59 85 -24 29 -57 73 -74 98 -57 85 -239
455 -272 555 -34 101 -139 500 -167 630 -8 39 -22 90 -30 115 -27 82 -37 244
-30 510 8 321 16 398 65 590 52 205 109 360 176 481 30 54 55 101 55 104 0 18
196 320 248 383 21 26 70 92 108 147 88 129 169 220 290 325 53 47 120 105
149 130 111 97 273 214 335 243 36 16 121 58 190 92 188 94 432 179 625 218
28 5 120 24 205 42 85 19 189 36 231 38 90 6 162 38 227 101 59 55 72 84 72
155 0 78 -30 158 -84 224 -52 64 -92 91 -161 112 -48 13 -215 22 -226 11z"/>
<path d="M3535 6834 c-49 -8 -112 -21 -140 -29 -27 -8 -85 -21 -127 -30 -172
-35 -434 -123 -578 -195 -171 -85 -396 -242 -552 -387 -126 -118 -304 -307
-343 -366 -20 -28 -71 -98 -114 -153 -43 -56 -104 -146 -136 -200 -32 -55 -79
-135 -105 -179 -78 -132 -188 -415 -208 -535 -56 -332 -62 -392 -62 -656 0
-207 6 -284 39 -469 9 -54 57 -235 115 -435 20 -68 36 -134 36 -146 0 -67 136
-380 250 -579 14 -24 33 -58 44 -77 54 -97 135 -197 262 -323 213 -212 425
-395 519 -450 28 -16 58 -39 68 -51 10 -13 28 -26 40 -30 12 -4 37 -20 56 -36
19 -17 55 -39 80 -49 25 -11 57 -25 71 -33 14 -7 100 -38 191 -69 171 -58 313
-91 434 -101 138 -13 408 -51 515 -73 110 -23 459 -23 560 -1 96 22 222 59
330 96 251 88 309 111 354 140 28 18 54 32 60 32 5 0 27 11 48 25 91 60 117
76 193 116 150 79 180 96 265 148 150 93 246 169 370 292 47 47 99 102 115
124 106 138 174 227 200 261 16 21 42 54 57 72 16 18 40 56 54 85 15 28 32 56
39 62 7 5 23 39 36 75 12 36 30 76 40 90 30 45 50 102 94 280 82 328 100 513
90 905 -5 196 -11 277 -21 297 -7 14 -20 82 -29 150 -14 114 -21 158 -62 373
-18 94 -74 269 -138 425 -55 135 -66 156 -154 290 -38 58 -93 143 -123 190
-78 124 -160 224 -222 269 -30 23 -97 82 -148 132 -51 50 -102 97 -113 104
-11 7 -59 37 -106 68 -47 30 -110 67 -140 82 -57 29 -140 77 -224 130 -117 75
-285 155 -385 185 -122 36 -319 80 -359 80 -15 0 -54 7 -86 16 -206 53 -768
88 -950 58z m490 -184 c166 -10 319 -31 410 -54 32 -9 71 -16 86 -16 40 0 238
-44 359 -80 95 -28 234 -96 350 -169 90 -58 150 -93 210 -122 75 -38 149 -84
204 -128 21 -17 44 -31 51 -31 7 0 44 -33 82 -72 38 -40 88 -89 112 -108 92
-76 133 -124 243 -291 191 -288 189 -285 292 -551 38 -100 72 -229 96 -363 11
-66 23 -127 25 -135 2 -8 11 -73 20 -145 9 -71 22 -139 29 -150 22 -34 30
-467 12 -650 -23 -226 -51 -379 -81 -429 -14 -24 -32 -72 -40 -107 -17 -82
-29 -114 -80 -224 -23 -49 -46 -101 -50 -115 -14 -46 -59 -114 -162 -245 -56
-71 -122 -155 -145 -185 -146 -187 -362 -351 -677 -512 -85 -43 -170 -92 -190
-108 -19 -17 -39 -30 -44 -30 -5 0 -39 -18 -75 -40 -37 -21 -105 -52 -152 -69
-47 -16 -125 -43 -175 -61 -114 -40 -239 -76 -335 -97 -99 -22 -344 -22 -455
0 -115 23 -385 60 -520 73 -97 8 -205 30 -305 60 -256 78 -387 134 -415 177
-14 23 -51 48 -126 87 -59 30 -128 74 -155 97 -458 396 -502 444 -651 708
-136 239 -205 407 -248 605 -10 41 -33 129 -52 195 -72 251 -80 285 -108 469
-17 114 -20 395 -5 531 9 82 22 167 52 345 20 117 124 383 199 511 25 40 55
94 68 119 37 69 138 217 207 301 34 41 69 90 78 108 34 65 356 377 451 436 17
10 41 29 55 41 56 49 201 139 305 188 145 69 381 148 543 181 42 9 100 22 127
30 154 44 238 47 580 25z"/>
<path d="M2 2540 c0 -19 2 -27 5 -17 2 9 2 25 0 35 -3 9 -5 1 -5 -18z"/>
</g>
</svg>
