<?xml version="1.0" standalone="no"?>
<!DOCTYPE svg PUBLIC "-//W3C//DTD SVG 20010904//EN"
 "http://www.w3.org/TR/2001/REC-SVG-20010904/DTD/svg10.dtd">
<svg version="1.0" xmlns="http://www.w3.org/2000/svg"
 width="1425.000000pt" height="1430.000000pt" viewBox="0 0 1425.000000 1430.000000"
 preserveAspectRatio="xMidYMid meet">

<g transform="translate(0.000000,1430.000000) scale(0.100000,-0.100000)"
fill="#000000" stroke="none">
<path d="M96 14290 c-36 -5 -55 -13 -72 -33 l-24 -28 5 -467 c3 -257 10 -625
17 -819 13 -391 6 -1114 -13 -1313 -8 -85 -9 -238 -5 -475 4 -192 6 -838 4
-1435 -4 -1347 -3 -1530 11 -1805 33 -680 35 -807 22 -1307 -14 -578 -16
-1292 -5 -2073 10 -747 9 -1142 -4 -1545 -6 -184 -16 -497 -22 -695 -6 -198
-9 -448 -6 -555 3 -107 10 -508 15 -890 6 -444 14 -708 21 -732 6 -20 24 -48
41 -62 l31 -26 926 -2 c510 -2 1049 -2 1197 -2 1168 5 3750 1 4005 -6 173 -4
620 -11 993 -14 529 -4 684 -3 700 7 17 9 226 12 922 12 571 0 1030 5 1255 13
285 11 390 11 535 2 391 -27 1227 -35 1950 -20 220 4 660 5 977 2 620 -5 618
-6 658 46 20 24 20 47 20 1186 0 1140 -9 2024 -32 3046 -16 688 -16 1204 0
1490 11 194 11 305 0 635 -8 239 -12 651 -10 1025 2 344 -2 884 -9 1200 -9
439 -9 776 0 1425 10 768 17 1013 39 1375 4 63 3 414 -2 780 -12 817 -12 1408
-1 1725 l8 241 -26 29 -25 30 -349 0 c-255 0 -361 4 -398 13 -40 11 -252 13
-1043 13 -546 -1 -1057 -5 -1135 -10 -78 -4 -704 -7 -1392 -6 -747 2 -1301 -1
-1378 -7 -259 -19 -2573 -26 -3122 -8 -286 9 -535 8 -1500 -3 -126 -1 -219 4
-310 16 -104 14 -241 19 -690 24 -718 8 -2715 10 -2779 3z m2227 -189 c61 -10
86 -10 114 0 56 18 916 3 1083 -19 98 -13 183 -16 395 -13 403 5 1008 6 1110
2 50 -2 99 -2 110 -1 11 2 298 -3 639 -10 402 -8 719 -10 905 -4 157 4 615 9
1016 10 402 0 784 6 850 11 75 6 592 9 1375 8 690 -1 1318 1 1395 6 236 15
2023 12 2086 -3 37 -9 148 -13 358 -13 l304 0 -9 -155 c-9 -155 -9 -432 -3
-1825 3 -529 0 -803 -8 -930 -20 -283 -37 -1758 -27 -2300 5 -258 9 -839 9
-1290 0 -451 5 -986 12 -1190 9 -284 9 -417 0 -570 -15 -251 -15 -893 1 -1575
23 -1043 32 -1905 32 -2963 l0 -1077 -732 4 c-430 2 -838 -1 -986 -7 -285 -12
-1417 5 -1694 25 -123 8 -247 8 -555 -3 -232 -8 -780 -14 -1313 -15 -583 -1
-953 -6 -1020 -13 -117 -12 -1693 4 -1765 18 -22 4 -832 6 -1800 4 -1908 -4
-3988 -3 -3994 3 -2 2 -8 315 -12 696 -5 381 -12 756 -15 833 -3 77 0 302 6
500 6 198 16 511 22 695 14 411 15 901 4 1680 -10 797 -9 1442 5 1920 12 395
8 793 -10 1180 -26 544 -30 725 -20 1080 5 201 9 399 9 440 -1 41 -4 444 -6
895 -3 451 -6 951 -7 1110 -1 160 4 421 12 580 13 293 13 375 -7 1735 -5 300
-8 547 -6 550 1 3 465 5 1031 4 751 -1 1049 -4 1106 -13z"/>
</g>
</svg>
