<?xml version="1.0" standalone="no"?>
<!DOCTYPE svg PUBLIC "-//W3C//DTD SVG 20010904//EN"
 "http://www.w3.org/TR/2001/REC-SVG-20010904/DTD/svg10.dtd">
<svg version="1.0" xmlns="http://www.w3.org/2000/svg"
 width="541.000000pt" height="270.000000pt" viewBox="0 0 541.000000 270.000000"
 preserveAspectRatio="xMidYMid meet">

<g transform="translate(0.000000,270.000000) scale(0.100000,-0.100000)"
fill="#000000" stroke="none">
<path d="M169 2671 c-39 -40 -39 -82 0 -122 26 -25 37 -29 87 -29 228 0 585
-53 1043 -155 387 -86 769 -190 1231 -335 102 -32 235 -72 296 -89 206 -58
1204 -434 1190 -448 -2 -2 -68 14 -147 36 -229 63 -494 128 -697 171 -103 22
-290 65 -417 95 -264 64 -795 177 -935 199 -132 21 -730 93 -875 106 -66 5
-196 10 -288 10 l-169 0 -29 -29 c-60 -60 -23 -134 86 -172 59 -21 396 -109
595 -156 212 -50 609 -156 745 -198 77 -24 192 -58 255 -75 125 -34 526 -166
550 -182 12 -7 11 -8 -5 -4 -88 23 -519 102 -735 135 -522 80 -883 111 -1361
118 -421 6 -506 -2 -556 -52 -74 -74 -20 -165 128 -218 133 -47 499 -146 718
-192 255 -54 404 -91 606 -150 83 -24 215 -60 295 -80 233 -59 527 -141 635
-179 l100 -35 -90 5 c-366 19 -526 24 -865 24 -371 0 -440 -4 -566 -30 -80
-17 -124 -60 -124 -121 0 -37 5 -48 43 -83 78 -74 294 -147 717 -241 314 -69
555 -126 700 -164 144 -39 164 -39 201 -2 45 46 35 111 -23 142 -41 22 -358
100 -868 214 -135 30 -279 66 -320 79 l-75 24 318 1 c175 1 458 -6 630 -15
350 -18 695 -13 751 10 42 17 76 61 76 97 0 42 -46 88 -125 126 -134 64 -688
234 -1085 333 -69 17 -192 51 -275 75 -201 59 -344 94 -625 155 -129 27 -271
61 -315 75 l-80 25 185 -5 c489 -13 1133 -90 1715 -206 414 -83 756 -171 1075
-278 146 -50 191 -61 261 -67 68 -7 68 -7 104 29 75 75 35 137 -163 246 -151
83 -135 75 -440 196 -443 175 -832 312 -1066 376 -61 17 -174 50 -251 74 -77
24 -189 56 -248 71 -59 15 -106 29 -103 31 16 16 674 -114 1121 -222 127 -30
314 -73 417 -95 385 -82 761 -183 1383 -372 237 -72 455 -137 485 -145 30 -8
97 -27 147 -44 51 -16 117 -32 147 -35 54 -6 56 -6 91 29 41 41 46 80 14 121
-21 26 -334 186 -480 245 -102 40 -266 114 -352 158 -40 20 -124 55 -187 78
-63 24 -214 84 -335 135 -381 158 -987 383 -1190 440 -60 17 -186 55 -280 85
-435 137 -833 245 -1216 330 -477 106 -814 155 -1068 155 -78 0 -84 -2 -112
-29z"/>
</g>
</svg>
