<?xml version="1.0" standalone="no"?>
<!DOCTYPE svg PUBLIC "-//W3C//DTD SVG 20010904//EN"
 "http://www.w3.org/TR/2001/REC-SVG-20010904/DTD/svg10.dtd">
<svg version="1.0" xmlns="http://www.w3.org/2000/svg"
 width="1294.000000pt" height="2031.000000pt" viewBox="0 0 1294.000000 2031.000000"
 preserveAspectRatio="xMidYMid meet">

<g transform="translate(0.000000,2031.000000) scale(0.100000,-0.100000)"
fill="#000000" stroke="none">
<path d="M8140 20294 c-96 -21 -169 -32 -330 -49 -80 -9 -230 -29 -335 -45
-104 -15 -217 -31 -250 -35 -236 -25 -567 -70 -815 -111 -167 -28 -272 -43
-405 -59 -71 -8 -159 -20 -195 -25 -152 -25 -359 -49 -415 -50 -58 0 -185 -19
-262 -39 -21 -5 -74 -15 -118 -21 -89 -13 -255 -43 -355 -65 -100 -22 -139
-26 -545 -60 -99 -8 -218 -19 -265 -25 -47 -6 -139 -17 -205 -25 -66 -8 -185
-19 -265 -25 -260 -18 -434 -46 -785 -124 -135 -30 -308 -54 -477 -66 -131 -9
-294 -29 -453 -56 -172 -29 -281 -44 -520 -74 -132 -16 -321 -45 -420 -64 -99
-19 -220 -39 -270 -45 -49 -7 -120 -16 -157 -21 -80 -10 -151 -46 -218 -110
l-47 -45 -7 -95 c-3 -52 -10 -140 -16 -195 -12 -130 -12 -869 1 -1050 18 -254
25 -2300 9 -2515 -12 -161 -4 -1460 10 -1655 14 -187 22 -2829 9 -2969 -16
-168 -14 -638 4 -941 22 -364 43 -1938 28 -2090 -23 -237 -30 -529 -32 -1240
-1 -644 1 -771 17 -975 16 -193 19 -319 17 -710 -2 -261 -7 -560 -13 -665 -13
-252 -13 -952 1 -1090 6 -64 12 -444 14 -915 1 -443 6 -926 10 -1073 l8 -269
41 -61 c55 -83 222 -250 433 -431 28 -24 82 -59 120 -77 61 -31 76 -34 143
-32 84 3 174 15 235 33 22 6 96 22 165 35 69 12 206 39 305 58 99 20 214 40
255 47 41 6 163 24 270 41 235 37 302 45 490 59 80 6 219 20 310 30 91 11 257
29 370 40 112 12 268 32 345 45 77 13 165 26 195 30 30 4 165 29 301 56 135
27 310 58 390 69 79 11 151 23 159 26 43 15 516 76 645 83 147 8 361 32 640
73 280 40 425 57 655 77 129 12 264 26 300 31 36 5 110 14 165 20 55 6 150 17
210 25 61 9 166 22 235 30 211 24 422 54 490 70 36 8 187 31 335 50 238 31
461 66 850 133 61 11 182 27 270 37 88 9 187 21 220 27 33 6 123 14 200 18
167 10 370 33 515 60 58 10 146 24 195 30 50 6 135 20 190 31 124 26 254 47
365 60 47 5 126 16 175 25 182 32 275 44 480 64 544 53 681 71 873 114 l194
43 49 51 49 51 -5 83 c-14 235 -25 869 -15 943 5 44 15 373 21 730 10 579 10
674 -5 865 -13 171 -14 246 -6 365 5 83 9 436 8 785 -2 447 1 700 11 855 11
177 11 266 2 455 -26 534 -32 1087 -19 1825 13 722 15 981 10 1195 -1 63 -2
153 -1 200 1 47 -4 272 -12 500 -18 542 -17 1177 2 1325 11 90 13 285 11 1073
-2 730 0 972 9 997 10 26 9 87 -5 297 -14 214 -16 343 -12 693 8 569 8 646 -4
740 -7 52 -8 502 -4 1295 6 1144 0 1680 -25 2293 -6 157 -6 159 -33 182 -47
40 -81 41 -563 16 -104 -5 -350 -10 -545 -10 -195 -1 -454 -8 -575 -16 -121
-8 -279 -15 -352 -15 -72 0 -166 -5 -209 -11 -90 -12 -89 -13 -98 72 -7 74
-27 123 -58 143 -29 19 -204 36 -383 36 -71 0 -209 7 -305 15 -336 27 -514 60
-625 115 -119 59 -205 84 -280 84 -68 0 -266 -16 -372 -30 l-53 -7 0 172 c0
185 -8 224 -51 255 -30 20 -146 20 -239 0z m110 -375 l0 -201 29 -29 c34 -33
72 -37 154 -15 65 17 206 36 278 37 29 0 76 4 103 8 53 9 103 -6 256 -74 41
-19 109 -43 150 -54 151 -40 509 -75 899 -86 114 -3 189 -9 197 -16 8 -6 14
-28 14 -48 0 -61 19 -109 60 -152 l39 -41 103 5 c57 3 220 10 363 16 143 6
321 15 395 20 74 6 297 11 495 11 322 1 570 9 826 26 l85 6 15 -279 c11 -216
14 -628 15 -1858 1 -869 4 -1890 6 -2270 14 -2369 14 -2879 -3 -2905 -14 -22
-16 -83 -18 -460 -1 -239 3 -559 9 -710 9 -235 19 -789 24 -1265 0 -71 -5
-465 -12 -875 -14 -758 -8 -1380 18 -1880 9 -157 8 -247 -2 -385 -9 -124 -12
-380 -10 -825 1 -400 -2 -716 -10 -831 -9 -159 -9 -220 6 -420 16 -211 17
-292 7 -824 -6 -324 -16 -639 -22 -700 -9 -84 -9 -200 0 -500 16 -544 19 -492
-26 -504 -208 -56 -436 -89 -943 -136 -177 -16 -377 -43 -526 -70 -45 -8 -122
-19 -170 -24 -115 -13 -244 -34 -369 -60 -55 -11 -140 -25 -190 -31 -49 -6
-137 -20 -195 -30 -149 -28 -366 -52 -499 -55 -63 -2 -135 -8 -160 -14 -41
-10 -157 -24 -401 -51 -47 -5 -123 -16 -170 -25 -241 -45 -584 -99 -825 -130
-148 -19 -299 -42 -335 -50 -68 -15 -277 -45 -490 -70 -69 -8 -174 -21 -235
-29 -60 -9 -155 -20 -210 -26 -55 -6 -129 -15 -165 -20 -36 -5 -119 -14 -185
-20 -204 -18 -517 -50 -570 -59 -275 -45 -664 -92 -835 -101 -133 -8 -607 -69
-650 -84 -8 -3 -80 -15 -159 -26 -80 -11 -255 -42 -390 -69 -136 -27 -271 -52
-301 -56 -30 -4 -118 -17 -195 -30 -77 -13 -233 -33 -345 -45 -113 -11 -279
-29 -370 -40 -91 -10 -230 -24 -310 -30 -188 -14 -255 -22 -490 -59 -107 -17
-229 -35 -270 -41 -41 -7 -156 -27 -255 -47 -99 -19 -236 -46 -305 -58 -69
-13 -143 -29 -165 -35 -22 -7 -73 -16 -113 -22 -95 -14 -131 -3 -220 64 -95
72 -337 303 -373 356 l-30 45 -10 236 c-6 130 -12 611 -14 1069 -2 510 -8 883
-15 960 -13 146 -9 686 9 1357 14 503 10 823 -13 1110 -14 164 -17 329 -16
905 1 681 7 936 31 1200 15 167 -5 1814 -27 2185 -18 298 -20 677 -5 847 13
140 5 2893 -8 3063 -5 61 -9 245 -10 410 0 165 -3 453 -7 640 -4 226 -2 394 6
500 16 213 14 1868 -3 2350 -25 746 -11 1439 31 1487 24 28 89 45 237 63 77
10 194 28 260 41 202 39 292 53 505 79 256 31 337 42 425 60 106 21 310 46
400 50 44 2 116 8 160 14 274 36 331 45 430 67 351 78 525 106 785 124 80 6
199 17 265 25 66 8 158 19 205 25 47 6 166 17 265 25 431 36 413 34 650 80 94
18 206 38 250 45 44 6 107 18 140 25 100 22 146 29 225 30 66 2 231 23 430 55
36 5 124 17 195 25 133 16 238 31 405 59 248 41 579 86 815 111 33 4 146 19
250 35 105 16 273 39 375 50 102 11 212 27 245 34 33 8 70 14 83 15 l22 1 0
-201z"/>
</g>
</svg>
