<?xml version="1.0" standalone="no"?>
<!DOCTYPE svg PUBLIC "-//W3C//DTD SVG 20010904//EN"
 "http://www.w3.org/TR/2001/REC-SVG-20010904/DTD/svg10.dtd">
<svg version="1.0" xmlns="http://www.w3.org/2000/svg"
 width="1041.000000pt" height="790.000000pt" viewBox="0 0 1041.000000 790.000000"
 preserveAspectRatio="xMidYMid meet">

<g transform="translate(0.000000,790.000000) scale(0.100000,-0.100000)"
fill="#000000" stroke="none">
<path d="M4680 7864 c-466 -37 -1134 -164 -1575 -300 -764 -236 -1487 -647
-1981 -1127 -272 -263 -444 -481 -618 -785 -243 -423 -389 -838 -468 -1327 -8
-50 -13 -171 -13 -325 1 -219 4 -263 29 -419 15 -95 36 -214 47 -265 136 -628
505 -1242 1034 -1722 157 -142 262 -224 415 -321 471 -299 970 -520 1535 -682
558 -160 1006 -228 1575 -238 333 -6 408 0 655 47 138 27 324 88 352 116 33
33 32 96 -2 129 -32 33 -70 32 -179 -5 -349 -118 -835 -136 -1466 -54 -241 31
-308 43 -575 106 -585 137 -1104 338 -1577 609 -274 157 -405 251 -602 427
-417 376 -736 851 -902 1345 -73 216 -135 545 -151 793 -29 444 90 962 337
1469 369 758 959 1312 1869 1757 452 221 959 380 1541 482 492 87 790 116
1201 116 319 0 511 -11 769 -45 527 -69 1022 -196 1525 -393 817 -320 1560
-847 2037 -1446 300 -375 554 -913 637 -1348 51 -269 85 -590 76 -728 -18
-295 -79 -612 -161 -842 -97 -271 -275 -614 -437 -842 -386 -546 -897 -932
-1599 -1210 -563 -224 -1134 -364 -2063 -506 -906 -139 -1909 -156 -2725 -45
-330 45 -749 141 -1049 241 -144 48 -466 182 -650 270 -171 82 -207 89 -246
49 -27 -26 -34 -80 -15 -116 20 -36 442 -230 767 -352 282 -106 763 -221 1162
-277 379 -54 667 -72 1171 -72 731 -1 1150 36 1965 173 1755 294 2752 793
3416 1709 141 194 339 553 427 775 184 462 258 958 207 1395 -67 588 -186 960
-461 1436 -291 506 -747 971 -1343 1367 -836 557 -1961 926 -3007 987 -231 13
-672 10 -884 -6z"/>
</g>
</svg>
