<?xml version="1.0" standalone="no"?>
<!DOCTYPE svg PUBLIC "-//W3C//DTD SVG 20010904//EN"
 "http://www.w3.org/TR/2001/REC-SVG-20010904/DTD/svg10.dtd">
<svg version="1.0" xmlns="http://www.w3.org/2000/svg"
 width="2451.000000pt" height="1305.000000pt" viewBox="0 0 2451.000000 1305.000000"
 preserveAspectRatio="xMidYMid meet">

<g transform="translate(0.000000,1305.000000) scale(0.100000,-0.100000)"
fill="#000000" stroke="none">
<path d="M12469 13036 c-2 -3 -159 -7 -349 -11 -379 -8 -480 -11 -645 -20 -60
-4 -141 -8 -180 -10 -171 -8 -285 -16 -352 -26 -40 -6 -76 -8 -80 -6 -5 3 -35
1 -68 -4 -33 -5 -102 -11 -154 -14 -52 -4 -117 -10 -144 -16 -27 -5 -52 -7
-56 -5 -4 3 -44 -2 -90 -10 -45 -8 -95 -15 -109 -15 -28 -1 -172 -20 -307 -40
-44 -7 -95 -14 -113 -15 -18 -1 -76 -10 -130 -19 -236 -41 -269 -46 -307 -49
-22 -2 -79 -11 -127 -20 -189 -35 -255 -46 -293 -51 -49 -5 -189 -30 -315 -55
-52 -11 -147 -29 -210 -41 -63 -11 -156 -30 -207 -41 -50 -10 -105 -21 -122
-23 -17 -2 -63 -14 -103 -26 -40 -12 -84 -23 -98 -24 -14 -1 -64 -14 -112 -29
-48 -14 -91 -25 -95 -24 -9 3 -177 -42 -318 -85 -55 -17 -109 -32 -120 -34
-11 -2 -55 -15 -98 -29 -43 -14 -88 -27 -100 -28 -21 -3 -121 -35 -307 -99
-47 -16 -112 -37 -145 -47 -98 -29 -258 -87 -498 -180 -56 -22 -106 -40 -110
-40 -9 0 -119 -45 -293 -121 -62 -27 -116 -49 -120 -49 -5 0 -52 -20 -104 -44
-52 -25 -149 -68 -215 -96 -66 -29 -162 -72 -213 -96 -52 -24 -98 -44 -103
-44 -8 0 -317 -151 -384 -187 -11 -6 -84 -43 -163 -82 -79 -39 -162 -84 -186
-100 -23 -16 -64 -41 -91 -56 -28 -15 -69 -38 -93 -52 -24 -13 -66 -39 -95
-58 -28 -19 -55 -35 -58 -35 -7 0 -186 -111 -318 -197 -40 -26 -82 -51 -93
-55 -10 -4 -34 -19 -52 -33 -18 -14 -36 -25 -41 -25 -4 0 -30 -17 -58 -37 -28
-21 -65 -47 -83 -58 -55 -34 -287 -191 -326 -221 -21 -16 -65 -49 -98 -74 -33
-25 -92 -70 -130 -100 -37 -30 -97 -76 -132 -102 -58 -44 -150 -118 -306 -250
-286 -242 -775 -708 -922 -879 -30 -35 -67 -76 -81 -90 -14 -15 -45 -51 -70
-81 -49 -59 -69 -83 -126 -148 -22 -25 -55 -67 -73 -95 -19 -27 -38 -54 -43
-60 -10 -13 -93 -138 -129 -196 -15 -24 -62 -98 -104 -164 -144 -223 -304
-518 -349 -640 -10 -27 -24 -57 -30 -65 -6 -8 -24 -46 -40 -85 -16 -38 -39
-93 -51 -121 -13 -27 -30 -81 -39 -120 -9 -38 -20 -77 -25 -86 -5 -9 -19 -54
-30 -100 -12 -46 -27 -101 -35 -123 -8 -22 -19 -74 -26 -115 -6 -41 -15 -81
-20 -90 -4 -8 -13 -71 -19 -140 -6 -69 -16 -170 -21 -225 -5 -55 -9 -221 -8
-370 1 -148 1 -290 1 -315 -1 -25 3 -70 8 -100 5 -30 12 -77 15 -104 4 -27 15
-86 25 -129 11 -44 17 -84 14 -88 -7 -12 49 -221 86 -319 17 -47 33 -94 36
-105 2 -11 22 -58 45 -105 22 -47 42 -92 44 -100 2 -9 17 -39 34 -68 17 -29
44 -85 61 -125 17 -39 51 -97 74 -128 24 -31 49 -67 56 -80 7 -13 28 -42 47
-65 18 -23 33 -45 33 -49 0 -9 22 -35 238 -275 86 -96 173 -188 192 -205 19
-16 48 -43 65 -59 16 -15 49 -42 73 -59 23 -17 42 -33 42 -37 0 -4 21 -22 48
-41 26 -18 78 -60 117 -92 38 -32 94 -72 125 -89 30 -17 73 -44 95 -60 22 -16
76 -51 120 -78 44 -27 91 -57 105 -67 14 -11 52 -35 85 -53 33 -19 74 -43 90
-56 17 -12 75 -45 130 -75 55 -29 102 -56 105 -60 3 -3 39 -22 80 -42 41 -20
91 -45 110 -56 62 -35 463 -225 565 -266 39 -16 77 -34 85 -40 8 -6 49 -24 90
-39 41 -16 84 -34 95 -41 11 -6 45 -20 75 -30 30 -10 82 -30 115 -45 33 -16
94 -40 135 -54 41 -15 84 -31 95 -36 11 -6 61 -24 110 -40 99 -32 296 -101
335 -117 14 -6 61 -21 105 -33 44 -12 85 -26 90 -30 6 -4 46 -18 90 -30 44
-12 91 -28 105 -34 14 -7 66 -23 115 -36 50 -12 95 -26 100 -30 6 -4 51 -17
100 -29 50 -13 98 -27 107 -31 9 -5 54 -19 100 -30 46 -12 97 -27 115 -35 17
-8 35 -15 41 -15 5 0 50 -12 98 -26 49 -14 132 -36 184 -49 52 -13 142 -35
200 -50 58 -14 137 -33 175 -41 39 -8 93 -21 120 -29 28 -8 79 -20 115 -26 36
-6 76 -15 90 -20 25 -9 157 -36 320 -65 47 -8 92 -19 100 -23 8 -5 56 -14 105
-21 50 -6 99 -16 110 -20 11 -5 67 -16 125 -25 210 -32 279 -43 297 -49 10 -3
68 -13 128 -21 61 -9 153 -23 205 -31 52 -8 131 -19 175 -24 44 -5 107 -14
140 -19 33 -6 114 -17 180 -26 66 -9 165 -23 220 -30 55 -8 118 -16 140 -19
22 -3 99 -12 170 -21 132 -16 210 -25 390 -44 55 -6 114 -13 130 -17 36 -7
244 -29 505 -54 58 -5 404 -25 770 -44 641 -34 666 -34 690 -17 47 34 52 94
11 138 -26 28 -23 27 -721 58 -316 14 -589 30 -606 35 -17 6 -71 10 -120 10
-50 0 -94 4 -99 9 -6 5 -50 12 -100 14 -49 3 -148 13 -220 22 -71 9 -166 21
-210 25 -144 15 -269 29 -340 40 -76 10 -96 13 -255 30 -58 6 -114 15 -125 20
-11 4 -65 13 -120 18 -55 6 -149 18 -210 26 -60 8 -148 20 -195 26 -47 5 -96
13 -110 16 -14 4 -70 13 -125 21 -55 8 -140 20 -190 28 -49 8 -139 23 -200 32
-60 10 -114 21 -120 24 -5 4 -37 9 -70 13 -33 4 -91 13 -130 21 -164 34 -235
48 -320 64 -49 9 -94 19 -100 22 -5 4 -44 12 -85 18 -41 7 -88 17 -105 22 -16
6 -70 19 -120 29 -49 11 -137 30 -195 44 -58 13 -154 36 -213 50 -60 14 -112
28 -116 30 -4 3 -50 15 -102 26 -52 11 -107 27 -124 34 -16 7 -64 21 -105 31
-41 10 -79 21 -85 26 -5 4 -48 17 -95 28 -47 12 -94 26 -105 31 -11 5 -60 20
-110 34 -186 52 -301 87 -330 100 -16 8 -59 22 -95 31 -36 9 -78 23 -95 31
-16 7 -70 25 -120 39 -49 15 -94 30 -100 34 -5 5 -50 21 -100 36 -49 16 -95
32 -101 37 -7 5 -52 20 -100 35 -49 14 -94 29 -100 34 -5 4 -50 22 -100 39
-49 18 -98 37 -109 44 -11 7 -63 28 -115 46 -52 18 -102 39 -110 45 -8 7 -49
25 -90 40 -41 16 -89 37 -105 46 -17 10 -48 25 -70 32 -22 8 -92 40 -155 70
-63 31 -131 62 -150 71 -19 9 -42 20 -50 25 -8 6 -58 30 -110 55 -147 71 -393
206 -485 265 -33 22 -89 57 -125 77 -36 21 -77 47 -91 58 -15 12 -64 44 -109
71 -45 28 -94 59 -109 71 -14 11 -46 32 -71 46 -25 14 -57 37 -70 50 -14 14
-63 55 -110 92 -185 147 -280 237 -426 403 -126 142 -167 192 -185 223 -8 13
-38 55 -66 92 -29 37 -53 71 -53 75 0 4 -9 19 -20 33 -11 14 -40 68 -65 120
-25 52 -61 124 -80 160 -61 118 -183 470 -191 554 -3 28 -11 78 -19 111 -7 34
-16 79 -19 100 -3 22 -10 65 -16 95 -16 81 -29 695 -15 752 3 13 10 70 15 128
16 174 30 274 40 295 5 11 16 60 25 110 9 49 20 92 24 95 4 3 18 48 31 100 12
52 26 100 30 105 4 6 15 41 24 79 9 38 37 111 62 163 24 51 44 95 44 98 0 21
218 459 242 484 9 10 31 47 48 82 28 55 104 174 121 189 3 3 20 31 38 63 18
31 38 63 45 70 6 6 29 41 51 77 21 36 53 83 69 106 84 112 165 213 212 263 29
31 66 74 83 95 129 162 474 504 786 779 191 169 213 187 221 187 4 0 36 26 70
58 95 86 150 132 159 132 4 0 35 24 69 53 34 30 68 56 76 60 8 4 51 36 95 71
75 60 295 216 368 260 18 11 58 39 89 63 31 24 59 43 62 43 3 0 25 14 49 30
25 17 48 30 52 30 3 0 21 11 38 24 32 24 170 111 237 148 19 11 53 33 74 49
22 16 44 29 49 29 4 0 35 18 67 40 32 22 61 40 64 40 3 0 29 15 58 33 29 19
61 37 71 40 9 4 44 25 77 47 32 22 63 40 67 40 5 0 25 11 46 26 21 14 70 41
110 61 39 19 97 48 127 63 75 39 142 72 162 81 9 5 56 28 105 52 109 55 249
119 418 192 72 31 168 73 215 94 47 22 108 48 135 60 28 11 109 45 180 76 72
31 150 64 175 72 25 9 70 26 100 39 31 13 103 39 160 59 57 20 121 45 142 56
20 10 43 19 50 19 7 0 49 14 93 32 44 17 96 34 115 39 38 8 207 64 336 110 44
16 86 29 93 29 7 0 59 14 115 31 303 91 431 127 534 150 46 10 87 21 92 24 5
3 49 14 97 25 48 11 113 27 143 35 30 8 66 17 80 20 14 2 68 13 120 24 52 11
145 30 205 41 61 12 153 30 205 40 158 31 284 54 305 55 22 1 171 26 305 52
47 9 101 17 120 19 38 3 171 25 314 51 49 9 96 16 105 15 9 0 50 6 91 14 41 8
89 15 105 15 17 1 71 7 120 15 119 17 268 36 330 40 27 2 74 8 105 13 30 5 81
10 113 10 33 1 62 3 67 6 4 3 48 7 97 10 48 3 120 9 158 14 39 5 81 9 95 9 14
0 106 5 205 11 249 17 316 20 505 26 460 13 757 18 1073 18 369 -1 1108 -29
1142 -44 11 -4 56 -10 100 -13 90 -5 218 -18 410 -41 72 -9 166 -20 210 -25
136 -15 295 -38 410 -59 61 -12 155 -28 210 -37 55 -9 109 -20 120 -24 11 -5
63 -14 115 -21 52 -6 100 -15 105 -19 6 -5 37 -11 70 -15 33 -4 87 -13 120
-20 33 -8 94 -19 135 -26 41 -6 80 -15 85 -19 6 -4 46 -13 90 -20 44 -7 91
-17 105 -22 14 -5 63 -16 110 -24 47 -8 94 -19 105 -24 11 -5 61 -18 110 -29
172 -39 300 -70 325 -80 14 -5 60 -17 103 -25 44 -9 84 -19 90 -23 7 -4 53
-18 102 -30 220 -53 301 -74 320 -83 11 -5 56 -19 100 -30 44 -12 91 -27 105
-34 14 -7 59 -21 100 -31 41 -10 89 -23 105 -30 17 -7 71 -26 120 -41 50 -15
95 -30 100 -34 6 -4 51 -20 100 -35 50 -15 95 -31 100 -35 6 -4 50 -20 99 -35
49 -14 99 -32 110 -40 12 -7 59 -25 106 -40 47 -15 90 -31 95 -35 6 -4 53 -22
105 -40 52 -18 100 -37 106 -41 6 -5 54 -24 107 -44 53 -19 104 -39 114 -44
10 -6 50 -22 88 -37 39 -15 99 -40 135 -56 36 -17 87 -39 113 -49 26 -10 58
-25 70 -33 12 -8 47 -24 77 -36 50 -20 300 -142 360 -176 14 -8 57 -29 95 -47
39 -19 124 -64 190 -102 66 -37 158 -89 205 -115 47 -25 101 -57 121 -71 20
-13 55 -35 78 -49 24 -14 65 -39 91 -56 27 -18 75 -47 107 -65 32 -18 92 -56
133 -84 41 -28 100 -66 130 -83 30 -18 66 -41 80 -51 14 -11 65 -45 114 -78
201 -133 456 -312 484 -340 7 -7 35 -27 60 -45 26 -18 52 -37 57 -44 6 -6 31
-25 57 -42 25 -18 48 -35 50 -39 1 -5 23 -24 48 -43 51 -39 172 -140 180 -149
3 -4 25 -22 50 -41 25 -19 81 -66 125 -105 44 -39 100 -87 125 -107 65 -52
338 -323 456 -453 125 -137 284 -322 284 -331 0 -3 25 -33 55 -67 30 -33 55
-64 55 -69 0 -4 16 -30 35 -57 19 -26 35 -52 35 -55 0 -4 20 -34 45 -66 25
-32 45 -62 45 -66 0 -4 14 -30 32 -58 45 -73 67 -112 106 -186 19 -36 49 -90
66 -120 18 -30 35 -64 38 -75 4 -11 23 -58 43 -105 20 -47 42 -98 47 -115 6
-16 26 -64 44 -105 19 -42 34 -83 34 -92 0 -9 9 -37 20 -63 23 -55 106 -325
115 -375 3 -19 13 -59 21 -88 9 -28 17 -73 19 -100 2 -26 11 -85 19 -132 17
-95 35 -215 43 -293 6 -54 5 -339 -2 -557 -6 -182 -37 -460 -55 -492 -5 -10
-19 -61 -31 -115 -11 -54 -24 -102 -29 -108 -4 -5 -15 -44 -25 -85 -10 -41
-23 -84 -29 -95 -5 -11 -11 -22 -12 -25 0 -3 -3 -12 -7 -20 -3 -8 -17 -50 -31
-92 -14 -42 -32 -87 -40 -100 -8 -13 -28 -57 -44 -98 -62 -157 -256 -487 -350
-595 -10 -11 -33 -40 -51 -65 -19 -25 -41 -52 -50 -60 -9 -8 -37 -42 -63 -75
-26 -33 -69 -82 -95 -110 -111 -113 -371 -365 -378 -365 -5 0 -29 -19 -55 -42
-81 -73 -158 -138 -165 -138 -3 0 -32 -21 -65 -48 -32 -26 -82 -64 -112 -85
-29 -21 -83 -60 -120 -88 -37 -27 -70 -49 -73 -49 -3 0 -28 -16 -55 -35 -27
-19 -52 -35 -55 -35 -3 0 -29 -18 -58 -39 -29 -22 -77 -52 -107 -68 -74 -40
-126 -70 -169 -99 -20 -13 -40 -24 -45 -24 -5 0 -39 -19 -75 -42 -36 -23 -102
-60 -146 -82 -44 -22 -103 -55 -132 -73 -29 -18 -59 -33 -67 -33 -8 0 -17 -4
-20 -8 -9 -15 -569 -267 -613 -277 -10 -2 -56 -20 -103 -40 -47 -20 -98 -40
-115 -45 -16 -4 -57 -20 -90 -34 -33 -15 -85 -36 -115 -46 -30 -10 -80 -28
-110 -40 -54 -21 -187 -71 -285 -105 -27 -10 -77 -28 -110 -40 -134 -50 -528
-178 -555 -181 -8 0 -58 -14 -110 -31 -52 -16 -147 -44 -210 -62 -63 -17 -158
-45 -210 -61 -213 -64 -267 -80 -310 -89 -57 -11 -200 -47 -314 -77 -48 -14
-103 -26 -121 -29 -18 -2 -64 -13 -102 -24 -37 -12 -81 -23 -98 -25 -16 -2
-68 -14 -114 -26 -46 -12 -93 -23 -105 -25 -12 -1 -59 -12 -106 -24 -47 -13
-98 -24 -113 -26 -15 -2 -62 -14 -105 -26 -42 -12 -84 -22 -92 -21 -8 0 -56
-11 -107 -24 -51 -13 -96 -23 -100 -22 -4 1 -51 -8 -103 -21 -52 -13 -104 -24
-115 -25 -11 -2 -63 -12 -115 -24 -52 -12 -142 -30 -200 -41 -58 -11 -145 -27
-195 -37 -49 -9 -106 -18 -125 -20 -19 -1 -66 -9 -105 -18 -38 -9 -86 -18
-105 -20 -19 -1 -73 -10 -120 -19 -124 -23 -270 -47 -310 -52 -19 -2 -71 -11
-115 -19 -208 -38 -281 -51 -295 -49 -8 1 -49 -5 -90 -13 -41 -7 -97 -16 -125
-18 -49 -4 -109 -12 -310 -41 -203 -29 -261 -37 -318 -41 -31 -3 -89 -11 -129
-19 -40 -7 -76 -11 -80 -9 -4 3 -47 -3 -95 -12 -48 -9 -99 -16 -113 -16 -14 1
-61 -5 -105 -13 -44 -7 -100 -14 -123 -14 -24 -1 -48 -3 -52 -6 -9 -5 -184
-22 -325 -31 -38 -2 -105 -9 -148 -15 -42 -5 -81 -8 -85 -6 -4 3 -34 1 -67 -4
-73 -11 -218 -21 -485 -34 -448 -21 -688 -32 -725 -32 -16 0 -106 -3 -200 -7
-356 -14 -453 -16 -915 -16 -419 1 -580 6 -1370 46 -492 24 -929 49 -970 54
-41 4 -133 16 -205 25 -163 21 -239 29 -390 45 -66 7 -129 16 -140 20 -11 5
-58 12 -105 15 -47 4 -89 10 -95 13 -5 4 -50 12 -100 19 -103 13 -191 27 -320
48 -131 22 -209 34 -305 46 -47 5 -94 14 -105 19 -11 5 -58 14 -105 20 -47 6
-94 15 -105 20 -11 5 -60 16 -110 24 -96 16 -130 22 -615 116 -58 11 -116 24
-130 29 -14 6 -61 15 -105 22 -44 7 -82 15 -85 19 -3 4 -41 12 -85 19 -44 7
-100 18 -125 26 -25 7 -79 19 -120 26 -41 6 -81 15 -90 19 -8 5 -55 16 -105
26 -49 9 -97 21 -105 25 -8 5 -55 17 -105 29 -90 20 -172 39 -275 67 -30 7
-95 23 -145 33 -49 11 -99 24 -110 29 -11 5 -54 17 -95 26 -41 9 -84 20 -95
25 -11 5 -60 18 -110 30 -49 11 -102 25 -117 31 -14 6 -61 19 -105 29 -147 36
-278 71 -298 80 -11 5 -60 19 -110 30 -49 12 -99 25 -110 30 -51 22 -93 30
-155 30 -60 0 -69 -3 -93 -28 -16 -17 -27 -39 -27 -56 0 -38 58 -96 96 -96 16
0 63 -10 104 -21 41 -12 120 -33 175 -48 55 -14 105 -29 110 -33 6 -3 53 -16
105 -28 52 -12 100 -25 105 -29 6 -4 51 -16 100 -26 50 -10 95 -21 100 -26 6
-4 53 -17 105 -29 52 -12 104 -25 115 -30 11 -6 58 -19 105 -30 221 -51 296
-70 320 -79 14 -5 52 -15 85 -21 33 -6 78 -17 100 -25 22 -7 78 -21 124 -30
47 -10 92 -21 100 -26 15 -8 113 -30 307 -68 50 -10 95 -20 100 -24 6 -3 52
-13 104 -22 52 -8 104 -20 115 -25 11 -5 58 -16 105 -24 86 -16 178 -34 305
-61 69 -15 170 -34 310 -59 148 -27 252 -48 310 -61 33 -8 83 -17 110 -21 28
-3 68 -10 90 -16 22 -6 85 -17 140 -24 55 -8 141 -21 190 -29 50 -8 135 -21
190 -29 55 -8 132 -20 170 -26 207 -33 260 -41 365 -55 63 -8 134 -15 158 -15
23 0 50 -4 60 -9 9 -5 69 -14 132 -21 145 -15 246 -27 335 -39 39 -5 491 -30
1005 -56 835 -41 988 -46 1430 -47 272 0 572 2 665 6 94 4 231 9 305 11 149 5
358 13 490 20 47 2 141 6 210 10 408 19 544 26 551 31 3 2 55 6 115 10 60 3
112 8 115 10 3 2 49 6 101 9 53 3 120 10 149 14 30 5 57 7 61 4 4 -2 45 1 90
7 46 7 103 13 128 15 25 1 81 8 125 14 193 29 233 34 280 37 28 3 75 9 107 14
31 6 78 12 105 14 26 2 82 8 123 14 41 6 129 18 195 27 181 24 311 42 400 56
44 7 96 13 115 14 19 1 76 9 125 18 203 38 272 49 301 52 17 2 71 11 120 20
49 9 104 18 122 20 38 4 184 30 288 51 39 8 93 17 119 19 26 3 65 10 86 15 22
6 67 14 102 19 72 10 203 34 337 64 52 11 103 21 112 22 18 2 148 31 298 68
47 11 96 21 110 22 14 1 63 11 110 23 47 11 132 32 190 46 58 13 146 34 195
46 50 12 111 26 136 30 26 5 78 18 116 29 39 12 83 23 99 25 16 2 63 13 104
24 41 12 86 23 100 26 51 9 248 58 328 82 46 14 95 27 110 29 15 2 59 15 97
29 39 14 81 27 95 29 14 3 64 17 112 31 48 15 98 29 110 31 13 3 68 19 123 36
55 17 143 44 195 60 225 68 360 112 430 140 41 16 85 31 97 33 12 3 62 21 111
40 49 20 94 36 100 36 6 0 54 18 108 40 54 22 104 40 110 40 7 0 43 14 81 31
37 17 97 41 133 54 89 30 241 90 322 126 37 17 80 34 95 39 66 20 437 193 571
266 34 19 92 50 130 70 37 20 72 40 79 46 6 5 35 22 65 37 93 49 152 82 178
100 14 10 43 27 65 38 22 11 87 51 145 89 58 37 116 74 128 81 13 7 40 26 60
41 21 16 48 35 62 42 26 13 80 53 175 128 29 23 56 42 60 42 6 0 64 47 264
213 188 157 539 511 651 657 19 25 46 57 60 71 14 14 54 68 89 120 35 52 67
96 71 99 4 3 22 34 40 70 18 36 52 97 75 135 40 67 145 277 145 291 0 3 13 34
29 68 16 33 41 99 56 146 15 47 31 90 35 95 4 6 17 51 30 100 12 50 26 99 31
110 35 76 89 406 104 640 13 210 12 634 -1 718 -8 45 -16 109 -19 142 -2 33
-11 87 -19 120 -8 33 -12 63 -10 67 2 3 -5 50 -17 104 -11 53 -22 105 -24 116
-2 10 -14 53 -25 96 -12 42 -24 87 -26 100 -3 13 -19 64 -37 115 -19 51 -43
119 -54 152 -12 33 -31 85 -44 115 -12 30 -42 105 -67 165 -66 162 -191 413
-241 484 -12 16 -21 34 -21 39 0 6 -20 41 -45 78 -25 36 -45 68 -45 70 0 2
-16 26 -35 53 -19 26 -35 52 -35 55 0 4 -20 34 -45 66 -25 32 -45 61 -45 65 0
8 -65 86 -142 169 -32 35 -58 66 -58 70 0 4 -83 98 -185 209 -224 246 -440
458 -595 584 -19 16 -50 42 -69 58 -19 17 -53 46 -75 66 -23 19 -61 50 -86 69
-25 18 -50 38 -55 44 -18 19 -128 111 -188 157 -32 24 -75 57 -95 72 -20 16
-50 38 -66 50 -16 12 -52 40 -80 62 -28 22 -85 63 -127 91 -94 63 -143 97
-149 105 -5 6 -117 81 -204 137 -28 18 -78 50 -111 72 -33 21 -91 58 -130 82
-38 23 -72 45 -75 49 -3 3 -59 38 -125 77 -66 39 -129 79 -140 88 -11 8 -40
27 -65 40 -25 14 -74 43 -110 65 -36 22 -99 58 -140 80 -41 22 -111 61 -155
86 -125 71 -550 285 -650 327 -49 21 -100 44 -112 52 -12 8 -57 28 -100 45
-43 17 -105 43 -138 58 -33 15 -85 36 -115 46 -30 10 -60 22 -66 27 -7 5 -49
22 -95 39 -46 16 -97 36 -114 44 -16 8 -111 44 -210 80 -99 36 -191 72 -205
79 -14 8 -61 24 -105 36 -44 12 -91 28 -105 36 -14 7 -65 25 -115 40 -49 15
-95 30 -100 35 -6 4 -49 19 -95 32 -47 14 -96 30 -110 36 -14 6 -54 18 -90 27
-36 8 -78 22 -95 29 -37 17 -300 90 -505 141 -36 8 -92 24 -125 34 -33 10 -95
26 -138 34 -43 9 -85 20 -95 25 -9 4 -48 14 -87 21 -38 7 -81 17 -95 23 -39
15 -292 72 -520 118 -58 11 -112 25 -121 29 -9 5 -54 14 -100 20 -46 6 -93 15
-104 19 -11 5 -63 15 -114 21 -52 7 -102 16 -110 20 -9 4 -63 16 -121 25 -226
36 -273 44 -289 50 -9 3 -56 13 -106 21 -49 8 -112 19 -140 24 -27 5 -76 9
-107 9 -31 1 -60 6 -63 11 -3 6 -30 10 -58 10 -29 0 -92 7 -142 15 -49 8 -117
15 -151 15 -33 0 -64 4 -70 9 -5 5 -49 12 -99 15 -49 3 -133 10 -185 15 -224
23 -855 51 -1246 56 -232 2 -423 3 -425 1z"/>
</g>
</svg>
