<?xml version="1.0" encoding="UTF-8"?>
<!DOCTYPE svg PUBLIC "-//W3C//DTD SVG 1.1//EN" "http://www.w3.org/Graphics/SVG/1.1/DTD/svg11.dtd">
<svg xmlns="http://www.w3.org/2000/svg" version="1.1" width="800px" height="800px" style="shape-rendering:geometricPrecision; text-rendering:geometricPrecision; image-rendering:optimizeQuality; fill-rule:evenodd; clip-rule:evenodd" xmlns:xlink="http://www.w3.org/1999/xlink">
<g><path style="opacity:0.996" fill="#000000" d="M 381.5,16.5 C 403.215,13.764 423.215,18.264 441.5,30C 457.475,47.0433 463.309,67.21 459,90.5C 448.29,129.786 422.79,145.619 382.5,138C 369.834,134.327 359.667,127.16 352,116.5C 347.497,110.165 343.497,103.498 340,96.5C 339.113,84.7838 339.446,73.1171 341,61.5C 345.611,47.0858 353.111,34.5858 363.5,24C 369.287,20.5949 375.287,18.0949 381.5,16.5 Z"/></g>
<g><path style="opacity:0.995" fill="#000000" d="M 201.5,75.5 C 210.235,75.1241 218.902,75.6241 227.5,77C 235.779,80.4728 243.779,84.4728 251.5,89C 262.924,99.2273 269.424,112.061 271,127.5C 271.388,164.742 253.888,188.575 218.5,199C 189.741,203.531 168.575,193.031 155,167.5C 142.342,142.325 143.675,117.992 159,94.5C 163.692,89.2404 169.192,85.0737 175.5,82C 184.06,78.8599 192.727,76.6932 201.5,75.5 Z"/></g>
<g><path style="opacity:0.981" fill="#000000" d="M 574.5,76.5 C 628.553,72.3865 653.386,97.3865 649,151.5C 645.131,165.074 638.298,176.907 628.5,187C 620.755,193.527 611.755,196.86 601.5,197C 570.247,203.609 547.08,193.109 532,165.5C 529.719,159.71 528.386,153.71 528,147.5C 527.333,138.167 527.333,128.833 528,119.5C 529.413,112.673 532.413,106.673 537,101.5C 543.849,93.9853 551.349,87.1519 559.5,81C 564.522,79.1733 569.522,77.6733 574.5,76.5 Z M 579.5,90.5 C 618.584,88.7504 637.084,107.417 635,146.5C 626.579,176.81 606.746,188.977 575.5,183C 552.06,175.205 540.727,158.871 541.5,134C 541.001,125.165 543.501,117.332 549,110.5C 555.428,106.077 561.261,100.91 566.5,95C 570.71,92.934 575.043,91.434 579.5,90.5 Z"/></g>
<g><path style="opacity:0.982" fill="#000000" d="M 704.5,235.5 C 719.808,232.824 733.141,236.657 744.5,247C 768.163,267.323 775.663,292.49 767,322.5C 758.469,338.025 745.635,348.192 728.5,353C 705.351,360.091 683.684,357.091 663.5,344C 653.224,332.927 648.39,319.76 649,304.5C 643.064,261.62 661.564,238.62 704.5,235.5 Z M 709.5,249.5 C 716.393,248.655 722.727,250.155 728.5,254C 747.594,266.687 756.761,284.521 756,307.5C 753.35,318.493 747.184,326.993 737.5,333C 717.796,344.645 697.796,345.312 677.5,335C 671.429,330.585 667.262,324.752 665,317.5C 662.94,304.23 662.273,290.897 663,277.5C 664.31,274.527 666.31,272.193 669,270.5C 669.73,264.864 672.564,260.697 677.5,258C 680.167,256.667 682.833,255.333 685.5,254C 693.595,252.254 701.595,250.754 709.5,249.5 Z"/></g>
<g><path style="opacity:0.995" fill="#000000" d="M 79.5,238.5 C 105.855,234.097 126.355,242.764 141,264.5C 145.638,272.451 149.305,280.784 152,289.5C 154.194,301.982 152.194,313.649 146,324.5C 138.401,336.766 128.234,346.266 115.5,353C 112.226,354.202 108.893,355.202 105.5,356C 69.7177,366.661 43.8844,355.494 28,322.5C 22.5269,303.791 23.5269,285.458 31,267.5C 35.8298,263.035 40.3298,258.202 44.5,253C 48.5,250.333 52.5,247.667 56.5,245C 63.981,241.717 71.6477,239.55 79.5,238.5 Z"/></g>
<g><path style="opacity:0.996" fill="#000000" d="M 81.5,435.5 C 111.633,431.485 134.133,442.485 149,468.5C 149.822,470.788 150.489,473.122 151,475.5C 160.937,512.413 149.437,539.913 116.5,558C 95.0596,565.893 74.7263,563.893 55.5,552C 48.5009,547.904 42.3343,542.738 37,536.5C 25.538,514.946 24.538,492.946 34,470.5C 42.4916,455.152 54.9916,444.319 71.5,438C 74.9913,437.262 78.3246,436.429 81.5,435.5 Z"/></g>
<g><path style="opacity:0.981" fill="#000000" d="M 697.5,442.5 C 716.728,438.438 733.228,443.105 747,456.5C 756.495,466.482 763.161,478.148 767,491.5C 768.419,500.125 768.752,508.792 768,517.5C 764.447,526.274 760.114,534.607 755,542.5C 726.817,566.668 696.983,568.835 665.5,549C 656.01,541.532 650.51,531.699 649,519.5C 648.199,507.798 648.532,496.132 650,484.5C 651.34,477.806 653.673,471.472 657,465.5C 661.5,459.667 666.667,454.5 672.5,450C 680.403,445.656 688.736,443.156 697.5,442.5 Z M 702.5,456.5 C 717.907,454.356 730.407,459.356 740,471.5C 748.643,482.146 753.476,494.313 754.5,508C 754.435,510.591 753.935,513.091 753,515.5C 749.793,522.086 745.959,528.253 741.5,534C 731.135,541.847 719.469,546.681 706.5,548.5C 691.648,546.655 678.815,540.655 668,530.5C 662.339,517.289 661.006,503.622 664,489.5C 664.607,485.619 666.274,482.286 669,479.5C 671.738,469.261 678.238,462.427 688.5,459C 693.412,458.778 698.079,457.945 702.5,456.5 Z"/></g>
<g><path style="opacity:0.981" fill="#000000" d="M 206.5,603.5 C 224.131,601.646 238.631,607.313 250,620.5C 263.264,637.877 268.597,657.544 266,679.5C 259.758,705.413 243.592,720.579 217.5,725C 178.099,732.739 153.933,717.239 145,678.5C 144.333,668.167 144.333,657.833 145,647.5C 156.86,620.968 177.36,606.302 206.5,603.5 Z M 212.5,617.5 C 219.141,618.244 225.474,620.077 231.5,623C 247.737,638.043 254.237,656.543 251,678.5C 244.826,697.349 231.993,708.182 212.5,711C 190.292,715.953 174.125,708.453 164,688.5C 158.953,677.676 157.287,666.343 159,654.5C 161.883,648.696 165.049,643.029 168.5,637.5C 171.356,635.478 173.689,632.978 175.5,630C 180.373,627.064 185.373,624.397 190.5,622C 197.859,619.945 205.193,618.445 212.5,617.5 Z"/></g>
<g><path style="opacity:0.983" fill="#000000" d="M 574.5,606.5 C 588.892,606.07 603.226,606.57 617.5,608C 637.171,617.009 649.004,632.176 653,653.5C 654.123,666.286 653.456,678.953 651,691.5C 644.584,704.578 634.418,713.412 620.5,718C 602.054,723.257 583.387,723.924 564.5,720C 558.067,717.037 552.234,713.203 547,708.5C 530.866,686.263 526.866,661.929 535,635.5C 542.41,617.915 555.577,608.248 574.5,606.5 Z M 580.5,620.5 C 612.36,614.574 631.86,627.241 639,658.5C 640.269,668.75 639.269,678.75 636,688.5C 616.749,707.958 593.915,713.458 567.5,705C 555.959,696.777 548.792,685.61 546,671.5C 542.257,653.056 547.424,637.889 561.5,626C 563.5,625 565.5,624 567.5,623C 572.101,622.851 576.434,622.018 580.5,620.5 Z"/></g>
<g><path style="opacity:0.982" fill="#000000" d="M 382.5,664.5 C 403.949,660.58 423.282,665.08 440.5,678C 458.054,696.084 463.887,717.584 458,742.5C 450.002,764.491 434.502,777.991 411.5,783C 400.21,784.522 388.877,784.856 377.5,784C 373.103,782.485 368.77,780.818 364.5,779C 342.206,758.795 333.373,733.628 338,703.5C 342.926,689.927 351.426,679.427 363.5,672C 369.648,668.728 375.981,666.228 382.5,664.5 Z M 387.5,678.5 C 415.613,674.836 434.447,686.17 444,712.5C 447.808,745.346 433.308,764.513 400.5,770C 385.247,773.365 373.08,768.865 364,756.5C 354.464,742.005 350.464,726.005 352,708.5C 359.002,692.754 370.835,682.754 387.5,678.5 Z"/></g>
</svg>
